<svg xmlns="http://www.w3.org/2000/svg" version="1.1" xmlns:xlink="http://www.w3.org/1999/xlink" xmlns:svgjs="http://svgjs.dev/svgjs" width="1000" height="750" viewBox="0 0 1000 750"><rect width="1000" height="750" fill="#ffffff"></rect><g transform="matrix(0.834,0,0,0.834,82.49455598624456,115.4193570850203)"><svg viewBox="0 0 396 247" data-background-color="#e8d6d9" preserveAspectRatio="xMidYMid meet" height="623" width="1000" xmlns="http://www.w3.org/2000/svg" xmlns:xlink="http://www.w3.org/1999/xlink"><g id="tight-bounds" transform="matrix(1,0,0,1,0.23999499933711377,-0.09999999999999432)"><svg viewBox="0 0 395.52 247.2" height="247.2" width="395.52"><g><svg></svg></g><g><svg viewBox="0 0 395.52 247.2" height="247.2" width="395.52"><g><g><path xmlns="http://www.w3.org/2000/svg" d="M184.342 223.641c0 7.284-2.777 12.975-8.332 17.072-5.6 4.097-11.358 6.146-17.276 6.146-8.194 0-14.909-1.775-20.145-5.327-5.235-3.505-9.56-8.331-12.975-14.477-3.414-6.146-7.398-14.909-11.95-26.29l-11.95-30.73c-0.22-0.56-0.44-1.11-0.658-1.651h42.853l10.728 24.869c3.187 7.739 6.26 13.316 9.218 16.73 2.959 3.414 6.032 5.235 9.219 5.463 3.414 0 6.26-1.138 8.536-3.414 1.821 3.87 2.731 7.739 2.732 11.609zM48.108 198.375c0 16.844 2.049 30.046 6.146 39.606-2.504 2.276-5.804 4.393-9.901 6.351-4.097 1.912-8.65 2.868-13.658 2.868-6.829 0-12.451-1.935-16.867-5.804-4.461-3.87-6.806-9.105-7.033-15.706v-57.306h41.313zM6.795 51.215c0-17.527-1.935-31.412-5.805-41.655 13.202-6.373 33.233-9.56 60.093-9.56 33.233 0 58.112 4.939 74.638 14.818 16.48 9.924 24.72 25.926 24.72 48.006 0 5.62-0.567 10.95-1.702 15.992l-44.405 0c0.692-4.178 1.037-8.598 1.037-13.26 0-15.934-4.097-28.408-12.291-37.422-8.194-8.968-21.169-13.453-38.924-13.452-5.235 0-10.585 0.228-16.048 0.683l0 63.451-41.313 0zM248.395 233.679c-13.43-8.968-20.145-20.737-20.145-35.304 0-7.284 1.98-13.088 5.941-17.414 4.006-4.325 10.562-6.487 19.667-6.487 1.366 0 4.325 0.228 8.877 0.683-0.683 2.276-1.024 5.008-1.024 8.194 0 1.821 0.228 4.78 0.683 8.878 1.593 11.154 6.715 20.532 15.365 28.134 8.65 7.648 20.6 11.472 35.85 11.472 12.064 0 21.897-3.141 29.5-9.423 7.648-6.237 11.472-15.387 11.473-27.452 0-10.508-3.163-19.367-9.489-26.576h48.265c0.781 4.115 1.172 8.422 1.172 12.919 0 12.064-3.141 23.104-9.424 33.119-6.237 10.015-15.843 17.982-28.817 23.901-12.975 5.918-29.022 8.877-48.143 8.877-26.404 0-46.322-4.507-59.751-13.521zM236.445 59.41c0-20.031 7.398-34.94 22.193-44.728 14.796-9.788 33.688-14.682 56.679-14.682 21.624 0 38.969 3.46 52.034 10.38 13.111 6.965 19.667 17.049 19.667 30.251 0 12.519-7.056 19.12-21.169 19.803h-3.073c-2.049 0-5.122-0.228-9.219-0.683 0.228-1.138 0.341-2.731 0.342-4.78 0-5.008-0.797-9.56-2.39-13.657-1.593-7.967-5.918-14.34-12.975-19.121-7.056-4.78-16.389-7.17-27.998-7.17-9.56 0-17.937 2.39-25.129 7.17-7.147 4.78-10.721 12.519-10.721 23.218 0 7.512 1.707 14.158 5.121 19.94 2.654 4.53 6.546 9.018 11.676 13.465h-52.52c-1.679-5.909-2.518-12.378-2.518-19.406z" fill="#000000" fill-rule="nonzero" stroke="none" stroke-width="1" stroke-linecap="butt" stroke-linejoin="miter" stroke-miterlimit="10" stroke-dasharray="" stroke-dashoffset="0" font-family="none" font-weight="none" font-size="none" text-anchor="none" style="mix-blend-mode: normal" data-fill-palette-color="tertiary"></path></g></g><g transform="matrix(1,0,0,1,0,86.02861788928294)"><svg viewBox="0 0 395.52 75.14276422143409" height="75.14276422143409" width="395.52"><g><svg viewBox="0 0 395.52 75.14276422143409" height="75.14276422143409" width="395.52"><g><svg viewBox="0 0 438.63241348217775 83.33346487199098" height="75.14276422143409" width="395.52"><g transform="matrix(1,0,0,1,43.11241348217774,0)"><svg viewBox="0 0 395.52 83.33346487199098" height="83.33346487199098" width="395.52"><g><svg viewBox="0 0 395.52 83.33346487199098" height="83.33346487199098" width="395.52" id="textblock"><g><svg viewBox="0 0 395.52 54.81555895865237" height="54.81555895865237" width="395.52"><g transform="matrix(1,0,0,1,0,0)"><svg width="395.52" viewBox="3.5 -35.5 261.17999267578125 36.20000076293945" height="54.81555895865237" data-palette-color="#810520"><path d="M29.95-4.45Q30.35-3.6 30.35-2.75L30.35-2.75Q30.35-1.15 29.13-0.25 27.9 0.65 26.6 0.65L26.6 0.65Q24.8 0.65 23.65-0.13 22.5-0.9 21.75-2.25 21-3.6 20-6.1L20-6.1 18.25-10.6Q17.6-12.25 17.05-13.18 16.5-14.1 15.45-14.75 14.4-15.4 12.65-15.4L12.65-15.4 10.4-15.45 10.4-6.45Q10.4-2.75 11.3-0.65L11.3-0.65Q10.75-0.15 9.85 0.28 8.95 0.7 7.85 0.7L7.85 0.7Q6.35 0.7 5.38-0.15 4.4-1 4.35-2.45L4.35-2.45 4.35-28Q4.35-31.85 3.5-34.1L3.5-34.1Q6.4-35.5 12.3-35.5L12.3-35.5Q19.6-35.5 23.23-33.33 26.85-31.15 26.85-26.3L26.85-26.3Q26.85-22.7 24.73-20.18 22.6-17.65 18.95-16.7L18.95-16.7Q20.7-16.2 21.78-15.13 22.85-14.05 23.8-12.3L23.8-12.3 26-7.2Q26.7-5.5 27.35-4.75 28-4 28.7-3.95L28.7-3.95Q29.45-3.95 29.95-4.45L29.95-4.45ZM10.4-17.65Q12-17.55 12.95-17.6L12.95-17.6Q16.4-17.65 18.32-19.95 20.25-22.25 20.25-25.9L20.25-25.9Q20.25-29.4 18.45-31.38 16.65-33.35 12.75-33.35L12.75-33.35Q11.6-33.35 10.4-33.25L10.4-33.25 10.4-17.65ZM44.95 0.7Q39.2 0.7 36.02-2.88 32.85-6.45 32.85-12.85L32.85-12.85Q32.85-19.25 36.02-22.83 39.2-26.4 44.95-26.4L44.95-26.4Q50.65-26.4 53.82-22.83 57-19.25 57-12.85L57-12.85Q57-6.45 53.82-2.88 50.65 0.7 44.95 0.7L44.95 0.7ZM44.95-1.45Q50.6-1.45 50.6-12.85L50.6-12.85Q50.6-24.25 44.95-24.25L44.95-24.25Q39.2-24.25 39.2-12.85L39.2-12.85Q39.2-1.45 44.95-1.45L44.95-1.45ZM69.94 0.7Q65.25 0.7 62.84-0.93 60.45-2.55 60.45-5.2L60.45-5.2Q60.45-6.55 61.27-7.55 62.09-8.55 63.84-8.55L63.84-8.55Q64.14-8.55 64.94-8.45L64.94-8.45Q64.8-7.85 64.8-7.2L64.8-7.2Q64.8-6.65 64.94-5.95L64.94-5.95Q65.19-4.1 66.67-2.85 68.14-1.6 70.69-1.6L70.69-1.6Q72.89-1.6 74.27-2.43 75.64-3.25 75.64-4.9L75.64-4.9Q75.64-6.55 74.42-7.55 73.19-8.55 70.55-9.8L70.55-9.8Q69.89-10.05 69.44-10.3L69.44-10.3Q66.8-11.55 65.19-12.55 63.59-13.55 62.45-15.23 61.3-16.9 61.3-19.35L61.3-19.35Q61.3-22.9 64.05-24.68 66.8-26.45 71-26.45L71-26.45Q75.14-26.45 77.59-25.18 80.05-23.9 80.05-21.55L80.05-21.55Q80.05-20.35 79.37-19.53 78.69-18.7 77.25-18.65L77.25-18.65 76.75-18.65Q76.3-18.65 75.59-18.75L75.59-18.75Q75.69-20.55 75.25-21.45L75.25-21.45Q74.89-22.75 73.75-23.5 72.59-24.25 70.8-24.25L70.8-24.25Q69.05-24.25 67.84-23.53 66.64-22.8 66.64-21.3L66.64-21.3Q66.64-19.95 67.47-18.98 68.3-18 69.47-17.3 70.64-16.6 72.84-15.55L72.84-15.55Q75.64-14.2 77.25-13.28 78.84-12.35 80.02-10.83 81.19-9.3 81.19-7.15L81.19-7.15Q81.19-3.85 78.47-1.58 75.75 0.7 69.94 0.7L69.94 0.7ZM105.69-7.05Q106.49-6.7 106.49-5.75L106.49-5.75Q106.49-5.15 106.14-4.25L106.14-4.25Q105.19-1.9 102.72-0.6 100.24 0.7 96.79 0.7L96.79 0.7Q91.04 0.7 87.72-2.85 84.39-6.4 84.39-12.85L84.39-12.85Q84.39-19.2 87.64-22.8 90.89-26.4 96.94-26.4L96.94-26.4Q101.29-26.4 104.07-24.45 106.84-22.5 106.84-18.9L106.84-18.9Q106.84-15.25 103.87-13.28 100.89-11.3 95.89-11.3L95.89-11.3Q93.04-11.3 90.84-11.55L90.84-11.55Q91.19-7 93.14-5.03 95.09-3.05 98.44-3.05L98.44-3.05Q101.09-3.05 102.99-4.15 104.89-5.25 105.69-7.05L105.69-7.05ZM96.69-24.25Q93.89-24.25 92.32-21.45 90.74-18.65 90.74-13.65L90.74-13.65Q92.14-13.55 92.94-13.55L92.94-13.55Q96.24-13.55 98.34-14.85 100.44-16.15 100.44-19.85L100.44-19.85Q100.44-24.25 96.69-24.25L96.69-24.25ZM133.09 0.7Q127.29 0.7 124.34-1.28 121.39-3.25 121.39-6.45L121.39-6.45Q121.39-8.05 122.26-9 123.14-9.95 125.14-9.95L125.14-9.95Q125.44-9.95 126.44-9.85L126.44-9.85Q126.29-9.35 126.29-8.65L126.29-8.65Q126.29-8.25 126.39-7.35L126.39-7.35Q126.74-4.9 128.64-3.23 130.54-1.55 133.89-1.55L133.89-1.55Q136.54-1.55 138.21-2.93 139.89-4.3 139.89-6.95L139.89-6.95Q139.89-9.45 138.26-11.1 136.64-12.75 132.69-14.95L132.69-14.95Q129.09-17 127.01-18.55 124.94-20.1 123.76-22.08 122.59-24.05 122.59-26.8L122.59-26.8Q122.59-31.2 125.84-33.35 129.09-35.5 134.14-35.5L134.14-35.5Q138.89-35.5 141.76-33.98 144.64-32.45 144.64-29.55L144.64-29.55Q144.64-26.8 141.54-26.65L141.54-26.65 141.09-26.65Q140.64-26.65 139.74-26.75L139.74-26.75Q139.79-27 139.79-27.45L139.79-27.45Q139.79-28.55 139.44-29.45L139.44-29.45Q139.09-31.2 137.54-32.25 135.99-33.3 133.44-33.3L133.44-33.3Q131.34-33.3 129.76-32.25 128.19-31.2 128.19-28.85L128.19-28.85Q128.19-27.2 128.94-25.93 129.69-24.65 131.34-23.4 132.99-22.15 135.99-20.5L135.99-20.5Q139.04-18.85 141.06-17.38 143.09-15.9 144.41-13.8 145.74-11.7 145.74-8.95L145.74-8.95Q145.74-6.3 144.36-4.1 142.99-1.9 140.14-0.6 137.29 0.7 133.09 0.7L133.09 0.7ZM170.74-7.05Q171.54-6.7 171.54-5.75L171.54-5.75Q171.54-5.15 171.19-4.25L171.19-4.25Q170.24-1.9 167.76-0.6 165.29 0.7 161.84 0.7L161.84 0.7Q156.09 0.7 152.76-2.85 149.44-6.4 149.44-12.85L149.44-12.85Q149.44-19.2 152.69-22.8 155.94-26.4 161.99-26.4L161.99-26.4Q166.34-26.4 169.11-24.45 171.89-22.5 171.89-18.9L171.89-18.9Q171.89-15.25 168.91-13.28 165.94-11.3 160.94-11.3L160.94-11.3Q158.09-11.3 155.89-11.55L155.89-11.55Q156.24-7 158.19-5.03 160.14-3.05 163.49-3.05L163.49-3.05Q166.14-3.05 168.04-4.15 169.94-5.25 170.74-7.05L170.74-7.05ZM161.74-24.25Q158.94-24.25 157.36-21.45 155.79-18.65 155.79-13.65L155.79-13.65Q157.19-13.55 157.99-13.55L157.99-13.55Q161.29-13.55 163.39-14.85 165.49-16.15 165.49-19.85L165.49-19.85Q165.49-24.25 161.74-24.25L161.74-24.25ZM187.88 0.7Q181.98 0.7 178.76-2.83 175.53-6.35 175.53-12.85L175.53-12.85Q175.53-19.2 178.83-22.8 182.13-26.4 188.13-26.4L188.13-26.4Q192.48-26.4 194.81-24.6 197.13-22.8 197.13-20L197.13-20Q197.13-18.1 195.93-16.93 194.73-15.75 192.88-15.75L192.88-15.75Q191.93-15.75 191.06-16.03 190.18-16.3 189.73-16.85L189.73-16.85Q191.18-17.95 191.18-20.5L191.18-20.5Q191.18-22.45 190.21-23.35 189.23-24.25 187.63-24.25L187.63-24.25Q184.98-24.25 183.43-21.5 181.88-18.75 181.88-13.8L181.88-13.8Q181.88-8.25 183.91-5.65 185.93-3.05 189.63-3.05L189.63-3.05Q192.28-3.05 194.13-4.35 195.98-5.65 196.53-7.8L196.53-7.8Q197.38-7.45 197.38-6.25L197.38-6.25Q197.38-5.65 197.18-4.9L197.18-4.9Q196.43-2.25 193.93-0.78 191.43 0.7 187.88 0.7L187.88 0.7ZM215.23-26.4Q218.03-26.4 219.76-24.9 221.48-23.4 221.48-20.8L221.48-20.8Q221.48-19 220.38-17.78 219.28-16.55 217.68-16.5L217.68-16.5Q216.78-16.5 216.08-16.75 215.38-17 214.98-17.4L214.98-17.4Q215.53-18.35 215.71-19.07 215.88-19.8 215.88-20.8L215.88-20.8Q215.88-23.55 213.58-23.55L213.58-23.55Q211.63-23.55 210.46-20.6 209.28-17.65 209.28-11.85L209.28-11.85Q209.28-6.25 209.43-4.38 209.58-2.5 210.28-0.8L210.28-0.8Q209.78-0.3 208.91 0.1 208.03 0.5 206.88 0.5L206.88 0.5Q205.43 0.5 204.43-0.4 203.43-1.3 203.43-2.9L203.43-2.9 203.43-19.3Q203.43-20.7 203.11-21.3 202.78-21.9 202.08-21.9L202.08-21.9Q201.13-21.9 200.78-21.25L200.78-21.25Q200.18-22.25 200.18-23.25L200.18-23.25Q200.18-24.65 201.16-25.5 202.13-26.35 203.88-26.35L203.88-26.35Q205.98-26.35 207.23-24.98 208.48-23.6 208.63-20.9L208.63-20.9Q210.38-26.4 215.23-26.4L215.23-26.4ZM245.48-7.05Q246.28-6.7 246.28-5.75L246.28-5.75Q246.28-5.15 245.93-4.25L245.93-4.25Q244.98-1.9 242.5-0.6 240.03 0.7 236.58 0.7L236.58 0.7Q230.83 0.7 227.5-2.85 224.18-6.4 224.18-12.85L224.18-12.85Q224.18-19.2 227.43-22.8 230.68-26.4 236.73-26.4L236.73-26.4Q241.08-26.4 243.85-24.45 246.63-22.5 246.63-18.9L246.63-18.9Q246.63-15.25 243.65-13.28 240.68-11.3 235.68-11.3L235.68-11.3Q232.83-11.3 230.63-11.55L230.63-11.55Q230.98-7 232.93-5.03 234.88-3.05 238.23-3.05L238.23-3.05Q240.88-3.05 242.78-4.15 244.68-5.25 245.48-7.05L245.48-7.05ZM236.48-24.25Q233.68-24.25 232.1-21.45 230.53-18.65 230.53-13.65L230.53-13.65Q231.93-13.55 232.73-13.55L232.73-13.55Q236.03-13.55 238.13-14.85 240.23-16.15 240.23-19.85L240.23-19.85Q240.23-24.25 236.48-24.25L236.48-24.25ZM259.18-25.65Q260.18-25.65 262.28-25.73 264.38-25.8 264.68-25.85L264.68-25.85 264.63-24.4Q264.58-23.65 264.15-23.28 263.73-22.9 263.08-22.9L263.08-22.9 258.53-22.9 258.53-21.3 258.53-6.6Q258.53-3.95 260.83-3.95L260.83-3.95Q261.48-3.95 262.1-4.13 262.73-4.3 262.88-4.7L262.88-4.7Q263.58-3.8 263.58-2.75L263.58-2.75Q263.58-1.3 262.18-0.4 260.78 0.5 258.48 0.5L258.48 0.5Q255.68 0.5 254.15-1.25 252.63-3 252.63-6.1L252.63-6.1 252.63-22.9 251.88-22.9Q249.83-22.9 248.88-22.75L248.88-22.75 248.93-24.2Q248.98-24.9 249.4-25.28 249.83-25.65 250.48-25.65L250.48-25.65 252.63-25.65 252.63-29.25Q252.63-30.7 253.58-31.53 254.53-32.35 256.03-32.35L256.03-32.35Q257.18-32.35 258.03-31.95 258.88-31.55 259.38-31.05L259.38-31.05Q258.73-28.45 258.58-25.65L258.58-25.65 259.18-25.65Z" opacity="1" transform="matrix(1,0,0,1,0,0)" fill="#000000" class="undefined-text-0" data-fill-palette-color="primary" id="text-0"></path></svg></g></svg></g><g transform="matrix(1,0,0,1,0,62.814464584134754)"><svg viewBox="0 0 395.52 20.519000287856226" height="20.519000287856226" width="395.52"><g transform="matrix(1,0,0,1,0,0)"><svg width="395.52" viewBox="1.6620689630508423 -36.25 892.6212768554688 46.31282043457031" height="20.519000287856226" data-palette-color="#dc0935"><path d="M17.15-0.8L17.15-0.8Q15.35-0.1 13.08 0 10.8 0.1 8.85-0.53 6.9-1.15 5.4-2.45L5.4-2.45Q2.8-4.6 2.05-7.8 1.3-11 2-13.55 2.7-16.1 4.13-18.53 5.55-20.95 7.23-22.63 8.9-24.3 11.1-25.45 13.3-26.6 15.7-26.58 18.1-26.55 20.75-25.25L20.75-25.25Q21.15-25.05 21.63-24.65 22.1-24.25 22.45-23.95L22.45-23.95 23.1-23.3Q23.4-23 23.4-22.95L23.4-22.95Q24.2-22.25 24.25-21.15L24.25-21.15Q24.9-18.15 25.1-14.85 25.3-11.55 25.23-8.65 25.15-5.75 25.3-2.5L25.3-2.5Q25.35-1.5 24.65-0.75 23.95 0 22.9 0.05 21.85 0.1 21.1-0.6 20.35-1.3 20.3-2.3L20.3-2.3 20.3-3.05Q18.8-1.5 17.15-0.8L17.15-0.8ZM14.9-5.3L14.9-5.3Q15.65-5.5 16.1-5.7 16.55-5.9 17.23-6.3 17.9-6.7 18.65-7.3 19.4-7.9 20-8.8L20-8.8Q20.1-8.9 20.25-9L20.25-9Q20.25-15.75 19.4-19.85L19.4-19.85Q19.25-20.05 19.07-20.23 18.9-20.4 18.82-20.5 18.75-20.6 18.63-20.68 18.5-20.75 18.35-20.85L18.35-20.85Q15.95-22.15 13.3-20.93 10.65-19.7 8.65-16.35L8.65-16.35Q6.65-12.95 6.68-10.43 6.7-7.9 8.6-6.25L8.6-6.25Q9.75-5.3 11.45-5.05 13.15-4.8 14.9-5.3L14.9-5.3ZM50 0L50 0Q49.1-0.05 48.42-0.7 47.75-1.35 47.65-2.9L47.65-2.9Q45.35-0.9 42.9-0.3L42.9-0.3Q39.4 0.6 36.5-1.45L36.5-1.45Q33.7-3.45 32.1-8.05L32.1-8.05Q31.55-9.65 31.25-11.35L31.25-11.35Q30.95-13.1 30.97-15.08 31-17.05 31.05-18.28 31.1-19.5 31.3-21.63 31.5-23.75 31.55-24.3L31.55-24.3Q31.65-25.3 32.42-25.98 33.2-26.65 34.22-26.58 35.25-26.5 35.92-25.73 36.6-24.95 36.55-23.9L36.55-23.9Q36.5-23.15 36.27-21.05 36.05-18.95 36.02-17.93 36-16.9 35.97-15.23 35.95-13.55 36.17-12.23 36.4-10.9 36.8-9.65L36.8-9.65Q37.9-6.6 39.6-5.5L39.6-5.5Q40.3-5.05 41.9-5.05L41.9-5.05Q44.05-5.4 45.37-6.3 46.7-7.2 47.85-10.4L47.85-10.4Q47.95-17.05 47.7-23.9L47.7-23.9Q47.65-24.95 48.37-25.7 49.1-26.45 50.12-26.5 51.15-26.55 51.9-25.83 52.65-25.1 52.7-24.1L52.7-24.1Q53.1-12.3 52.65-2.35L52.65-2.35Q52.6-1.35 51.82-0.65 51.05 0.05 50 0L50 0ZM67.7-0.15L67.7-0.15Q67.4-0.25 66.47-0.45 65.55-0.65 64.87-0.9 64.2-1.15 63.32-1.63 62.45-2.1 61.75-2.93 61.05-3.75 60.55-4.9L60.55-4.9Q60-6.25 59.85-10.2L59.85-10.2Q59.7-13.25 59.8-18.05L59.8-18.05Q59.8-18.95 59.85-21.05L59.85-21.05 59.45-21Q58.4-20.9 57.6-21.55 56.8-22.2 56.67-23.23 56.55-24.25 57.2-25.05 57.85-25.85 58.85-26L58.85-26 60-26.1Q60.05-28.75 60.15-31.45L60.15-31.45Q60.2-32.5 60.95-33.2 61.7-33.9 62.75-33.85 63.8-33.8 64.5-33.05 65.2-32.3 65.15-31.25L65.15-31.25 65-26.5 66.65-26.6Q67.7-26.65 68.47-26 69.25-25.35 69.32-24.3 69.4-23.25 68.75-22.48 68.09-21.7 67.05-21.6L67.05-21.6 64.84-21.5Q64.8-19.1 64.8-18L64.8-18Q64.7-13.3 64.84-10.35L64.84-10.35Q64.95-7.35 65.15-6.9 65.34-6.45 65.45-6.28 65.55-6.1 65.82-5.93 66.09-5.75 66.4-5.7 66.7-5.65 67.52-5.43 68.34-5.2 69.3-4.85L69.3-4.85Q70.25-4.55 70.72-3.63 71.2-2.7 70.87-1.73 70.55-0.75 69.62-0.28 68.7 0.2 67.7-0.15L67.7-0.15ZM95.99-2.4L95.99-2.4Q95.94-1.35 95.19-0.65 94.44 0.05 93.42 0.03 92.39 0 91.69-0.75 90.99-1.5 90.99-2.5L90.99-2.5Q90.99-2.55 91.29-7.2L91.29-7.2Q91.59-12.3 91.39-14.95L91.39-14.95Q90.94-21.2 86.79-21.5L86.79-21.5Q84.59-21.65 83.17-20.83 81.74-20 80.39-17.95L80.39-17.95Q80.29-17.8 79.99-17.25L79.99-17.25Q80.34-6.45 80.34-2.45L80.34-2.45Q80.34-1.4 79.62-0.68 78.89 0.05 77.84 0.05 76.79 0.05 76.07-0.68 75.34-1.4 75.34-2.45L75.34-2.45Q75.34-4.75 74.94-18L74.94-18Q74.64-27.95 74.84-33.8L74.84-33.8Q74.89-34.8 75.64-35.52 76.39-36.25 77.42-36.2 78.44-36.15 79.17-35.4 79.89-34.65 79.84-33.6L79.84-33.6Q79.79-32.25 79.79-23.15L79.79-23.15Q82.99-26.85 87.29-26.5L87.29-26.5Q95.59-25.8 96.39-15.35L96.39-15.35Q96.54-12.45 96.47-10.3 96.39-8.15 96.19-5.55 95.99-2.95 95.99-2.4L95.99-2.4ZM114.74 0.25L114.74 0.25Q111.04 0 108.29-1.25 105.54-2.5 104.09-4.4 102.64-6.3 101.99-7.9 101.34-9.5 101.19-11.08 101.04-12.65 101.34-15.15L101.34-15.15Q101.69-17.25 102.82-19.3 103.94-21.35 105.82-22.98 107.69-24.6 110.34-25.48 112.99-26.35 115.99-26L115.99-26Q118.89-25.65 120.94-24.43 122.99-23.2 124.44-21.3L124.44-21.3Q125.69-19.7 125.97-18.9 126.24-18.1 126.47-17.4 126.69-16.7 126.84-16.2 126.99-15.7 127.12-15.18 127.24-14.65 127.29-13.95L127.29-13.95Q127.34-13 126.94-12.2 126.54-11.4 125.74-10.95L125.74-10.95Q125.09-10.7 124.34-10.7L124.34-10.7 115.79-10.55Q106.79-10.5 106.79-10.35L106.79-10.35 106.64-10.35Q107.29-7.8 109.37-6.35 111.44-4.9 115.04-4.65L115.04-4.65Q116.99-4.55 118.29-4.85L118.29-4.85Q119.74-5.25 120.39-5.58 121.04-5.9 121.99-6.45L121.99-6.45Q122.94-6.8 123.89-6.35 124.84-5.9 125.19-4.95 125.54-4 125.12-3.1 124.69-2.2 123.79-1.7L123.79-1.7Q122.99-1.25 122.14-0.93 121.29-0.6 119.64-0.15 117.99 0.3 114.74 0.25L114.74 0.25ZM106.74-15.25L106.74-15.25Q109.64-15.4 121.79-15.55L121.79-15.55Q121.34-17.05 120.34-18.4L120.34-18.4Q118.34-20.7 115.39-21.05L115.39-21.05Q112.29-21.45 109.94-19.73 107.59-18 106.74-15.25L106.74-15.25ZM134.69 0L134.69 0Q133.69 0 132.94-0.68 132.19-1.35 132.19-2.5L132.19-2.5Q132.19-6.45 132.14-9.3L132.14-9.3Q132.04-17.8 132.04-24.05L132.04-24.05Q132.04-25.2 132.74-25.85 133.44-26.5 134.44-26.5L134.44-26.5Q135.49-26.5 136.26-25.83 137.04-25.15 137.04-23.95L137.04-23.95 137.04-22.4Q140.14-26.45 145.19-26.45L145.19-26.45Q149.54-26.45 151.86-23.4 154.19-20.35 154.19-15.2L154.19-15.2Q154.19-9.5 154.04-7.7L154.04-7.7 153.79-4.35 153.64-2.2Q153.54-1.2 152.84-0.6 152.14 0 151.19 0L151.19 0Q150.19 0 149.44-0.68 148.69-1.35 148.69-2.5L148.69-2.5Q148.69-3.3 149.04-8.05L149.04-8.05Q149.29-11.3 149.29-13.15L149.29-13.15Q149.29-17.4 148.09-19.43 146.89-21.45 144.39-21.45L144.39-21.45Q142.59-21.45 140.66-20.35 138.74-19.25 137.04-17.55L137.04-17.55 137.14-10.45 137.19-2.5Q137.19-1.35 136.44-0.68 135.69 0 134.69 0L134.69 0ZM168.54-0.15L168.54-0.15Q168.24-0.25 167.31-0.45 166.39-0.65 165.71-0.9 165.04-1.15 164.16-1.63 163.29-2.1 162.59-2.93 161.89-3.75 161.39-4.9L161.39-4.9Q160.84-6.25 160.69-10.2L160.69-10.2Q160.54-13.25 160.64-18.05L160.64-18.05Q160.64-18.95 160.69-21.05L160.69-21.05 160.29-21Q159.24-20.9 158.44-21.55 157.64-22.2 157.51-23.23 157.39-24.25 158.04-25.05 158.69-25.85 159.69-26L159.69-26 160.84-26.1Q160.89-28.75 160.99-31.45L160.99-31.45Q161.04-32.5 161.79-33.2 162.54-33.9 163.59-33.85 164.64-33.8 165.34-33.05 166.04-32.3 165.99-31.25L165.99-31.25 165.84-26.5 167.49-26.6Q168.54-26.65 169.31-26 170.09-25.35 170.16-24.3 170.24-23.25 169.59-22.48 168.94-21.7 167.89-21.6L167.89-21.6 165.69-21.5Q165.64-19.1 165.64-18L165.64-18Q165.54-13.3 165.69-10.35L165.69-10.35Q165.79-7.35 165.99-6.9 166.19-6.45 166.29-6.28 166.39-6.1 166.66-5.93 166.94-5.75 167.24-5.7 167.54-5.65 168.36-5.43 169.19-5.2 170.14-4.85L170.14-4.85Q171.09-4.55 171.56-3.63 172.04-2.7 171.71-1.73 171.39-0.75 170.46-0.28 169.54 0.2 168.54-0.15L168.54-0.15ZM175.63-2.4L175.63-2.4Q175.53-6.15 175.66-13.9 175.78-21.65 175.78-24.05L175.78-24.05Q175.78-25.1 176.51-25.83 177.23-26.55 178.28-26.55 179.33-26.55 180.06-25.83 180.78-25.1 180.78-24.05L180.78-24.05Q180.78-21.65 180.66-13.95 180.53-6.25 180.63-2.5L180.63-2.5Q180.63-1.45 179.93-0.7 179.23 0.05 178.18 0.05 177.13 0.05 176.38-0.65 175.63-1.35 175.63-2.4L175.63-2.4ZM180.28-35.2L180.28-35.2Q181.13-34.35 181.13-33.1 181.13-31.85 180.28-31 179.43-30.15 178.18-30.15 176.93-30.15 176.08-31 175.23-31.85 175.23-33.1 175.23-34.35 176.08-35.2 176.93-36.05 178.21-36.08 179.48-36.1 180.28-35.2L180.28-35.2ZM199.03 0.1L199.03 0.1Q196.18 0.15 193.46-0.9 190.73-1.95 188.98-3.95L188.98-3.95Q187.18-6.05 186.6-8.97 186.03-11.9 186.56-14.55 187.08-17.2 188.33-19.65L188.33-19.65Q189.33-21.5 190.73-22.98 192.13-24.45 194-25.48 195.88-26.5 198-26.58 200.13-26.65 202.58-25.65L202.58-25.65Q203.88-25.05 205.23-23.75L205.23-23.75 206.83-22.15Q207.63-21.5 207.73-20.45 207.83-19.4 207.16-18.63 206.48-17.85 205.43-17.75 204.38-17.65 203.63-18.35L203.63-18.35Q203.18-18.7 202.58-19.3L202.58-19.3 201.73-20.15Q201.03-20.85 200.58-21.05L200.58-21.05Q198.33-22.05 196.28-21.03 194.23-20 192.78-17.3L192.78-17.3Q191.28-14.5 191.31-11.7 191.33-8.9 192.78-7.25L192.78-7.25Q193.68-6.2 195.38-5.55 197.08-4.9 198.98-4.9L198.98-4.9Q202.83-5 203.93-7.65L203.93-7.65 203.88-7.9 203.88-9.35Q203.93-10.4 204.71-11.08 205.48-11.75 206.53-11.7 207.58-11.65 208.25-10.88 208.93-10.1 208.88-9.05L208.88-9.05 208.88-7.95Q208.93-6.7 208.53-5.75L208.53-5.75Q207.38-2.85 204.75-1.4 202.13 0.05 199.03 0.1L199.03 0.1ZM239.13 0.1L239.13 0.1Q236.28 0.15 233.55-0.9 230.82-1.95 229.07-3.95L229.07-3.95Q227.28-6.05 226.7-8.97 226.13-11.9 226.65-14.55 227.18-17.2 228.43-19.65L228.43-19.65Q229.43-21.5 230.82-22.98 232.22-24.45 234.1-25.48 235.97-26.5 238.1-26.58 240.22-26.65 242.68-25.65L242.68-25.65Q243.97-25.05 245.32-23.75L245.32-23.75 246.93-22.15Q247.72-21.5 247.82-20.45 247.93-19.4 247.25-18.63 246.57-17.85 245.53-17.75 244.47-17.65 243.72-18.35L243.72-18.35Q243.28-18.7 242.68-19.3L242.68-19.3 241.82-20.15Q241.13-20.85 240.68-21.05L240.68-21.05Q238.43-22.05 236.38-21.03 234.32-20 232.88-17.3L232.88-17.3Q231.38-14.5 231.4-11.7 231.43-8.9 232.88-7.25L232.88-7.25Q233.78-6.2 235.47-5.55 237.18-4.9 239.07-4.9L239.07-4.9Q242.93-5 244.03-7.65L244.03-7.65 243.97-7.9 243.97-9.35Q244.03-10.4 244.8-11.08 245.57-11.75 246.63-11.7 247.68-11.65 248.35-10.88 249.03-10.1 248.97-9.05L248.97-9.05 248.97-7.95Q249.03-6.7 248.63-5.75L248.63-5.75Q247.47-2.85 244.85-1.4 242.22 0.05 239.13 0.1L239.13 0.1ZM267.57-0.35L267.57-0.35Q260.97 1.25 257.02-3L257.02-3Q253.87-6.25 253.12-11.35L253.12-11.35Q252.57-15.35 254.07-18.95L254.07-18.95Q255.87-23.55 259.77-25.75L259.77-25.75Q260.57-26.2 261.77-26.4L261.77-26.4Q261.82-26.4 262.47-26.45L262.47-26.45Q262.72-26.5 262.87-26.55L262.87-26.55Q263.62-26.7 264.37-26.4L264.37-26.4Q264.57-26.4 265.32-26.38 266.07-26.35 266.32-26.33 266.57-26.3 267.2-26.23 267.82-26.15 268.22-26.05L268.22-26.05 269.17-25.7Q269.77-25.5 270.32-25.2 270.87-24.9 271.52-24.5L271.52-24.5Q274.77-22.3 276.02-18.32 277.27-14.35 276.67-11.9L276.67-11.9Q276.22-9.2 275.07-6.88 273.92-4.55 271.9-2.75 269.87-0.95 267.57-0.35L267.57-0.35ZM266.02-5.55L266.02-5.55Q268.17-5.85 269.7-7.78 271.22-9.7 271.7-11.85 272.17-14 271.35-16.57 270.52-19.15 268.72-20.3L268.72-20.3Q268.17-20.7 267.82-20.88 267.47-21.05 267-21.18 266.52-21.3 266.25-21.3 265.97-21.3 265.07-21.35 264.17-21.4 263.47-21.45L263.47-21.45Q263.32-21.45 263.12-21.5L263.12-21.5Q262.57-21.45 262.52-21.45L262.52-21.45 262.17-21.35Q259.97-20.15 258.8-17.53 257.62-14.9 258.12-12.1L258.12-12.1Q258.67-8.7 260.57-6.95L260.57-6.95Q262.62-5.05 266.02-5.55L266.02-5.55ZM287.72 0L287.72 0Q284.02-0.65 282.37-3L282.37-3Q281.57-4.05 281.22-5.8L281.22-5.8 281.02-6.9Q280.92-7.4 280.82-7.7L280.82-7.7Q280.52-8.65 281.02-9.55 281.52-10.45 282.52-10.7 283.52-10.95 284.42-10.5 285.32-10.05 285.62-9.05L285.62-9.05Q285.77-8.5 285.92-7.8L285.92-7.8Q285.97-7.55 286-7.33 286.02-7.1 286.17-6.55L286.17-6.55Q286.32-5.9 286.87-5.45L286.87-5.45Q287.47-4.9 288.67-4.75L288.67-4.75Q290.67-4.35 292.97-4.85L292.97-4.85Q295.22-5.35 296.47-6.3L296.47-6.3Q297.37-7.1 297.22-7.95L297.22-7.95Q297.07-9.35 295.47-10.05L295.47-10.05Q294.47-10.5 290.27-11.25L290.27-11.25Q285.92-12.1 284.12-13.45L284.12-13.45Q280.82-15.9 281.97-20.75L281.97-20.75Q282.67-23.55 284.85-24.88 287.02-26.2 289.67-26.35L289.67-26.35Q291.92-26.45 294.25-25.83 296.57-25.2 298.22-24.1L298.22-24.1Q298.77-23.7 299.37-23.15 299.97-22.6 300.55-21.95 301.12-21.3 301.22-21.25L301.22-21.25Q301.97-20.5 301.97-19.53 301.97-18.55 301.25-17.82 300.52-17.1 299.5-17.1 298.47-17.1 297.72-17.8L297.72-17.8Q297.22-18.25 296.72-18.75L296.72-18.75 296.02-19.6Q295.72-19.85 295.32-20.1L295.32-20.1Q294.37-20.7 292.87-21.13 291.37-21.55 289.92-21.5L289.92-21.5Q287.27-21.35 286.87-19.65L286.87-19.65Q286.42-17.85 287.17-17.3L287.17-17.3Q288.07-16.65 291.22-16L291.22-16Q295.87-15.2 297.57-14.45L297.57-14.45Q301.67-12.6 302.22-8.5L302.22-8.5Q302.67-5.15 299.72-2.7L299.72-2.7Q297.47-0.85 294.02-0.15L294.02-0.15Q290.72 0.6 287.72 0L287.72 0ZM337.47-2.2L337.47-2.2Q337.42-3.1 337.34-3.88 337.27-4.65 337.24-5.03 337.22-5.4 337.19-5.68 337.17-5.95 337.17-6.3L337.17-6.3 337.17-9.15Q337.17-9.95 337.24-11.98 337.32-14 337.29-15.4 337.27-16.8 337.02-18.05L337.02-18.05Q336.72-19.8 335.97-20.58 335.22-21.35 333.67-21.35L333.67-21.35Q330.22-21.3 326.77-17.15L326.77-17.15Q326.92-15.65 326.92-11.35L326.92-11.35Q326.92-8.2 327.07-2.55L327.07-2.55Q327.12-1.55 326.39-0.8 325.67-0.05 324.64 0 323.62 0.05 322.87-0.68 322.12-1.4 322.07-2.45L322.07-2.45Q321.92-8.1 321.92-11.35L321.92-11.35 321.92-13.85Q321.92-14.1 321.89-14.9 321.87-15.7 321.84-16.07 321.82-16.45 321.74-17.07 321.67-17.7 321.59-18.18 321.52-18.65 321.37-19.1L321.37-19.1Q320.97-20.5 320.27-21.05L320.27-21.05Q319.52-21.65 318.02-21.5L318.02-21.5Q316.37-21.35 315.17-20.6L315.17-20.6Q314.02-19.85 312.82-18.2L312.82-18.2Q312.57-17.9 312.27-17.65L312.27-17.65Q312.47-7.65 312.27-2.4L312.27-2.4Q312.22-1.35 311.47-0.65 310.72 0.05 309.67 0 308.62-0.05 307.92-0.8 307.22-1.55 307.27-2.6L307.27-2.6Q307.37-8.15 307.37-9.73 307.37-11.3 307.24-16.98 307.12-22.65 307.12-24.25L307.12-24.25Q307.12-25 307.84-25.75 308.57-26.5 309.57-26.5 310.57-26.5 311.37-25.88 312.17-25.25 312.12-23.55L312.12-23.55Q314.37-26.2 317.62-26.5L317.62-26.5Q321.07-26.8 323.37-24.95L323.37-24.95Q324.57-24 325.52-22.3L325.52-22.3Q328.62-26.2 333.67-26.5L333.67-26.5Q337.37-26.55 339.62-24.2L339.62-24.2Q341.37-22.15 341.97-18.95L341.97-18.95Q342.22-17.45 342.27-15.68 342.32-13.9 342.24-11.68 342.17-9.45 342.17-9.15L342.17-9.15 342.17-6.4Q342.17-6.15 342.19-5.9 342.22-5.65 342.24-5.33 342.27-5 342.32-4.25 342.37-3.5 342.47-2.6L342.47-2.6Q342.52-1.55 341.84-0.78 341.17 0 340.14 0.08 339.12 0.15 338.34-0.53 337.57-1.2 337.47-2.2L337.47-2.2ZM360.82 0.25L360.82 0.25Q357.12 0 354.37-1.25 351.62-2.5 350.17-4.4 348.72-6.3 348.07-7.9 347.42-9.5 347.27-11.08 347.12-12.65 347.42-15.15L347.42-15.15Q347.77-17.25 348.89-19.3 350.02-21.35 351.89-22.98 353.77-24.6 356.42-25.48 359.07-26.35 362.07-26L362.07-26Q364.97-25.65 367.02-24.43 369.07-23.2 370.52-21.3L370.52-21.3Q371.77-19.7 372.04-18.9 372.32-18.1 372.54-17.4 372.77-16.7 372.92-16.2 373.07-15.7 373.19-15.18 373.32-14.65 373.37-13.95L373.37-13.95Q373.42-13 373.02-12.2 372.62-11.4 371.82-10.95L371.82-10.95Q371.17-10.7 370.42-10.7L370.42-10.7 361.87-10.55Q352.87-10.5 352.87-10.35L352.87-10.35 352.72-10.35Q353.37-7.8 355.44-6.35 357.52-4.9 361.12-4.65L361.12-4.65Q363.07-4.55 364.37-4.85L364.37-4.85Q365.82-5.25 366.47-5.58 367.12-5.9 368.07-6.45L368.07-6.45Q369.02-6.8 369.97-6.35 370.92-5.9 371.27-4.95 371.62-4 371.19-3.1 370.77-2.2 369.87-1.7L369.87-1.7Q369.07-1.25 368.22-0.93 367.37-0.6 365.72-0.15 364.07 0.3 360.82 0.25L360.82 0.25ZM352.82-15.25L352.82-15.25Q355.72-15.4 367.87-15.55L367.87-15.55Q367.42-17.05 366.42-18.4L366.42-18.4Q364.42-20.7 361.47-21.05L361.47-21.05Q358.37-21.45 356.02-19.73 353.67-18 352.82-15.25L352.82-15.25ZM386.41-0.15L386.41-0.15Q386.11-0.25 385.19-0.45 384.26-0.65 383.59-0.9 382.91-1.15 382.04-1.63 381.16-2.1 380.46-2.93 379.76-3.75 379.26-4.9L379.26-4.9Q378.71-6.25 378.56-10.2L378.56-10.2Q378.41-13.25 378.51-18.05L378.51-18.05Q378.51-18.95 378.56-21.05L378.56-21.05 378.16-21Q377.11-20.9 376.31-21.55 375.51-22.2 375.39-23.23 375.26-24.25 375.91-25.05 376.56-25.85 377.56-26L377.56-26 378.71-26.1Q378.76-28.75 378.86-31.45L378.86-31.45Q378.91-32.5 379.66-33.2 380.41-33.9 381.46-33.85 382.51-33.8 383.21-33.05 383.91-32.3 383.86-31.25L383.86-31.25 383.71-26.5 385.36-26.6Q386.41-26.65 387.19-26 387.96-25.35 388.04-24.3 388.11-23.25 387.46-22.48 386.81-21.7 385.76-21.6L385.76-21.6 383.56-21.5Q383.51-19.1 383.51-18L383.51-18Q383.41-13.3 383.56-10.35L383.56-10.35Q383.66-7.35 383.86-6.9 384.06-6.45 384.16-6.28 384.26-6.1 384.54-5.93 384.81-5.75 385.11-5.7 385.41-5.65 386.24-5.43 387.06-5.2 388.01-4.85L388.01-4.85Q388.96-4.55 389.44-3.63 389.91-2.7 389.59-1.73 389.26-0.75 388.34-0.28 387.41 0.2 386.41-0.15L386.41-0.15ZM393.51-2.4L393.51-2.4Q393.41-6.15 393.54-13.9 393.66-21.65 393.66-24.05L393.66-24.05Q393.66-25.1 394.39-25.83 395.11-26.55 396.16-26.55 397.21-26.55 397.94-25.83 398.66-25.1 398.66-24.05L398.66-24.05Q398.66-21.65 398.54-13.95 398.41-6.25 398.51-2.5L398.51-2.5Q398.51-1.45 397.81-0.7 397.11 0.05 396.06 0.05 395.01 0.05 394.26-0.65 393.51-1.35 393.51-2.4L393.51-2.4ZM398.16-35.2L398.16-35.2Q399.01-34.35 399.01-33.1 399.01-31.85 398.16-31 397.31-30.15 396.06-30.15 394.81-30.15 393.96-31 393.11-31.85 393.11-33.1 393.11-34.35 393.96-35.2 394.81-36.05 396.09-36.08 397.36-36.1 398.16-35.2L398.16-35.2ZM416.91 0.1L416.91 0.1Q414.06 0.15 411.33-0.9 408.61-1.95 406.86-3.95L406.86-3.95Q405.06-6.05 404.48-8.97 403.91-11.9 404.43-14.55 404.96-17.2 406.21-19.65L406.21-19.65Q407.21-21.5 408.61-22.98 410.01-24.45 411.88-25.48 413.76-26.5 415.88-26.58 418.01-26.65 420.46-25.65L420.46-25.65Q421.76-25.05 423.11-23.75L423.11-23.75 424.71-22.15Q425.51-21.5 425.61-20.45 425.71-19.4 425.03-18.63 424.36-17.85 423.31-17.75 422.26-17.65 421.51-18.35L421.51-18.35Q421.06-18.7 420.46-19.3L420.46-19.3 419.61-20.15Q418.91-20.85 418.46-21.05L418.46-21.05Q416.21-22.05 414.16-21.03 412.11-20 410.66-17.3L410.66-17.3Q409.16-14.5 409.18-11.7 409.21-8.9 410.66-7.25L410.66-7.25Q411.56-6.2 413.26-5.55 414.96-4.9 416.86-4.9L416.86-4.9Q420.71-5 421.81-7.65L421.81-7.65 421.76-7.9 421.76-9.35Q421.81-10.4 422.58-11.08 423.36-11.75 424.41-11.7 425.46-11.65 426.13-10.88 426.81-10.1 426.76-9.05L426.76-9.05 426.76-7.95Q426.81-6.7 426.41-5.75L426.41-5.75Q425.26-2.85 422.63-1.4 420.01 0.05 416.91 0.1L416.91 0.1ZM437.11 0L437.11 0Q433.41-0.65 431.76-3L431.76-3Q430.96-4.05 430.61-5.8L430.61-5.8 430.41-6.9Q430.31-7.4 430.21-7.7L430.21-7.7Q429.91-8.65 430.41-9.55 430.91-10.45 431.91-10.7 432.91-10.95 433.81-10.5 434.71-10.05 435.01-9.05L435.01-9.05Q435.16-8.5 435.31-7.8L435.31-7.8Q435.36-7.55 435.38-7.33 435.41-7.1 435.56-6.55L435.56-6.55Q435.71-5.9 436.26-5.45L436.26-5.45Q436.86-4.9 438.06-4.75L438.06-4.75Q440.06-4.35 442.36-4.85L442.36-4.85Q444.61-5.35 445.86-6.3L445.86-6.3Q446.76-7.1 446.61-7.95L446.61-7.95Q446.46-9.35 444.86-10.05L444.86-10.05Q443.86-10.5 439.66-11.25L439.66-11.25Q435.31-12.1 433.51-13.45L433.51-13.45Q430.21-15.9 431.36-20.75L431.36-20.75Q432.06-23.55 434.23-24.88 436.41-26.2 439.06-26.35L439.06-26.35Q441.31-26.45 443.63-25.83 445.96-25.2 447.61-24.1L447.61-24.1Q448.16-23.7 448.76-23.15 449.36-22.6 449.93-21.95 450.51-21.3 450.61-21.25L450.61-21.25Q451.36-20.5 451.36-19.53 451.36-18.55 450.63-17.82 449.91-17.1 448.88-17.1 447.86-17.1 447.11-17.8L447.11-17.8Q446.61-18.25 446.11-18.75L446.11-18.75 445.41-19.6Q445.11-19.85 444.71-20.1L444.71-20.1Q443.76-20.7 442.26-21.13 440.76-21.55 439.31-21.5L439.31-21.5Q436.66-21.35 436.26-19.65L436.26-19.65Q435.81-17.85 436.56-17.3L436.56-17.3Q437.46-16.65 440.61-16L440.61-16Q445.26-15.2 446.96-14.45L446.96-14.45Q451.06-12.6 451.61-8.5L451.61-8.5Q452.06-5.15 449.11-2.7L449.11-2.7Q446.86-0.85 443.41-0.15L443.41-0.15Q440.11 0.6 437.11 0L437.11 0ZM455.45 7.65L455.45 7.65Q454.55 7.65 454 7.05 453.45 6.45 453.45 5.55L453.45 5.55Q453.45 5 453.65 4.55 453.85 4.1 454.3 3.5L454.3 3.5Q454.75 2.85 455 2.33 455.25 1.8 455.25 1.2L455.25 1.2Q455.25 0.45 454.85-0.9L454.85-0.9Q454.55-2 454.55-2.35L454.55-2.35Q454.55-3.35 455.23-4.03 455.9-4.7 456.8-4.7L456.8-4.7Q458.7-4.7 459.2-2.95L459.2-2.95Q459.8-0.6 459.8 1L459.8 1Q459.8 2.1 459.43 3.13 459.05 4.15 458.35 5.6L458.35 5.6Q457.3 7.65 455.45 7.65L455.45 7.65ZM508.9-2.2L508.9-2.2Q508.85-3.1 508.77-3.88 508.7-4.65 508.67-5.03 508.65-5.4 508.62-5.68 508.6-5.95 508.6-6.3L508.6-6.3 508.6-9.15Q508.6-9.95 508.67-11.98 508.75-14 508.72-15.4 508.7-16.8 508.45-18.05L508.45-18.05Q508.15-19.8 507.4-20.58 506.65-21.35 505.1-21.35L505.1-21.35Q501.65-21.3 498.2-17.15L498.2-17.15Q498.35-15.65 498.35-11.35L498.35-11.35Q498.35-8.2 498.5-2.55L498.5-2.55Q498.55-1.55 497.82-0.8 497.1-0.05 496.07 0 495.05 0.05 494.3-0.68 493.55-1.4 493.5-2.45L493.5-2.45Q493.35-8.1 493.35-11.35L493.35-11.35 493.35-13.85Q493.35-14.1 493.32-14.9 493.3-15.7 493.27-16.07 493.25-16.45 493.17-17.07 493.1-17.7 493.02-18.18 492.95-18.65 492.8-19.1L492.8-19.1Q492.4-20.5 491.7-21.05L491.7-21.05Q490.95-21.65 489.45-21.5L489.45-21.5Q487.8-21.35 486.6-20.6L486.6-20.6Q485.45-19.85 484.25-18.2L484.25-18.2Q484-17.9 483.7-17.65L483.7-17.65Q483.9-7.65 483.7-2.4L483.7-2.4Q483.65-1.35 482.9-0.65 482.15 0.05 481.1 0 480.05-0.05 479.35-0.8 478.65-1.55 478.7-2.6L478.7-2.6Q478.8-8.15 478.8-9.73 478.8-11.3 478.67-16.98 478.55-22.65 478.55-24.25L478.55-24.25Q478.55-25 479.27-25.75 480-26.5 481-26.5 482-26.5 482.8-25.88 483.6-25.25 483.55-23.55L483.55-23.55Q485.8-26.2 489.05-26.5L489.05-26.5Q492.5-26.8 494.8-24.95L494.8-24.95Q496-24 496.95-22.3L496.95-22.3Q500.05-26.2 505.1-26.5L505.1-26.5Q508.8-26.55 511.05-24.2L511.05-24.2Q512.8-22.15 513.4-18.95L513.4-18.95Q513.65-17.45 513.7-15.68 513.75-13.9 513.67-11.68 513.6-9.45 513.6-9.15L513.6-9.15 513.6-6.4Q513.6-6.15 513.62-5.9 513.65-5.65 513.67-5.33 513.7-5 513.75-4.25 513.8-3.5 513.9-2.6L513.9-2.6Q513.95-1.55 513.27-0.78 512.6 0 511.57 0.08 510.55 0.15 509.77-0.53 509-1.2 508.9-2.2L508.9-2.2ZM533.79-0.8L533.79-0.8Q532-0.1 529.72 0 527.44 0.1 525.5-0.53 523.54-1.15 522.04-2.45L522.04-2.45Q519.44-4.6 518.69-7.8 517.94-11 518.64-13.55 519.35-16.1 520.77-18.53 522.19-20.95 523.87-22.63 525.54-24.3 527.75-25.45 529.94-26.6 532.35-26.58 534.75-26.55 537.39-25.25L537.39-25.25Q537.79-25.05 538.27-24.65 538.75-24.25 539.1-23.95L539.1-23.95 539.75-23.3Q540.04-23 540.04-22.95L540.04-22.95Q540.85-22.25 540.89-21.15L540.89-21.15Q541.54-18.15 541.75-14.85 541.94-11.55 541.87-8.65 541.79-5.75 541.94-2.5L541.94-2.5Q542-1.5 541.29-0.75 540.6 0 539.54 0.05 538.5 0.1 537.75-0.6 537-1.3 536.94-2.3L536.94-2.3 536.94-3.05Q535.44-1.5 533.79-0.8L533.79-0.8ZM531.54-5.3L531.54-5.3Q532.29-5.5 532.75-5.7 533.19-5.9 533.87-6.3 534.54-6.7 535.29-7.3 536.04-7.9 536.64-8.8L536.64-8.8Q536.75-8.9 536.89-9L536.89-9Q536.89-15.75 536.04-19.85L536.04-19.85Q535.89-20.05 535.72-20.23 535.54-20.4 535.47-20.5 535.39-20.6 535.27-20.68 535.14-20.75 535-20.85L535-20.85Q532.6-22.15 529.94-20.93 527.29-19.7 525.29-16.35L525.29-16.35Q523.29-12.95 523.32-10.43 523.35-7.9 525.25-6.25L525.25-6.25Q526.39-5.3 528.1-5.05 529.79-4.8 531.54-5.3L531.54-5.3ZM565.29-0.8L565.29-0.8Q559.54-7.15 556.39-12.7L556.39-12.7 553.69-10.45Q553.59-10.35 553.49-10.3L553.49-10.3Q553.39-6.4 553.19-2.35L553.19-2.35Q553.14-1.3 552.37-0.6 551.59 0.1 550.57 0.05 549.54 0 548.84-0.78 548.14-1.55 548.19-2.55L548.19-2.55Q548.74-14.05 548.74-33.3L548.74-33.3Q548.74-34.35 549.47-35.08 550.19-35.8 551.24-35.8 552.29-35.8 553.02-35.08 553.74-34.35 553.74-33.3L553.74-33.3Q553.74-23.5 553.64-16.9L553.64-16.9Q560.94-23 563.74-25.7L563.74-25.7Q564.39-26.5 565.44-26.55 566.49-26.6 567.27-25.93 568.04-25.25 568.09-24.2 568.14-23.15 567.44-22.4L567.44-22.4Q564.94-19.95 560.29-15.95L560.29-15.95Q563.29-10.45 568.99-4.1L568.99-4.1Q569.69-3.35 569.64-2.33 569.59-1.3 568.82-0.6 568.04 0.1 567.02 0.05 565.99 0 565.29-0.8L565.29-0.8ZM584.19 0.25L584.19 0.25Q580.49 0 577.74-1.25 574.99-2.5 573.54-4.4 572.09-6.3 571.44-7.9 570.79-9.5 570.64-11.08 570.49-12.65 570.79-15.15L570.79-15.15Q571.14-17.25 572.26-19.3 573.39-21.35 575.26-22.98 577.14-24.6 579.79-25.48 582.44-26.35 585.44-26L585.44-26Q588.34-25.65 590.39-24.43 592.44-23.2 593.89-21.3L593.89-21.3Q595.14-19.7 595.41-18.9 595.69-18.1 595.91-17.4 596.14-16.7 596.29-16.2 596.44-15.7 596.56-15.18 596.69-14.65 596.74-13.95L596.74-13.95Q596.79-13 596.39-12.2 595.99-11.4 595.19-10.95L595.19-10.95Q594.54-10.7 593.79-10.7L593.79-10.7 585.24-10.55Q576.24-10.5 576.24-10.35L576.24-10.35 576.09-10.35Q576.74-7.8 578.81-6.35 580.89-4.9 584.49-4.65L584.49-4.65Q586.44-4.55 587.74-4.85L587.74-4.85Q589.19-5.25 589.84-5.58 590.49-5.9 591.44-6.45L591.44-6.45Q592.39-6.8 593.34-6.35 594.29-5.9 594.64-4.95 594.99-4 594.56-3.1 594.14-2.2 593.24-1.7L593.24-1.7Q592.44-1.25 591.59-0.93 590.74-0.6 589.09-0.15 587.44 0.3 584.19 0.25L584.19 0.25ZM576.19-15.25L576.19-15.25Q579.09-15.4 591.24-15.55L591.24-15.55Q590.79-17.05 589.79-18.4L589.79-18.4Q587.79-20.7 584.84-21.05L584.84-21.05Q581.74-21.45 579.39-19.73 577.04-18 576.19-15.25L576.19-15.25ZM614.38 10.05L614.38 10.05Q613.33 10.15 612.53 9.47 611.73 8.8 611.63 7.78 611.53 6.75 612.21 5.95 612.88 5.15 613.88 5.05L613.88 5.05Q614.38 5 615.08 4.95 615.78 4.9 616.01 4.88 616.23 4.85 616.58 4.78 616.93 4.7 617.13 4.55L617.13 4.55 617.63 4.25Q618.83 3.65 619.78 0.9L619.78 0.9Q620.08 0.05 620.38-0.3L620.38-0.3Q620.03-0.7 619.83-1.25L619.83-1.25Q618.93-5.1 616.13-12.65L616.13-12.65Q613.63-19.3 612.43-23.3L612.43-23.3Q612.13-24.3 612.63-25.2 613.13-26.1 614.13-26.4 615.13-26.7 616.03-26.2 616.93-25.7 617.23-24.7L617.23-24.7Q618.18-21.5 620.83-14.4L620.83-14.4 622.73-9.2Q626.23-19.9 629.13-25.25L629.13-25.25Q629.63-26.15 630.63-26.45 631.63-26.75 632.53-26.25 633.43-25.75 633.73-24.75 634.03-23.75 633.53-22.85L633.53-22.85Q632.23-20.45 630.83-17 629.43-13.55 628.63-11.2 627.83-8.85 626.53-4.65L626.53-4.65Q626.23-3.65 626.13-3.25L626.13-3.25Q625.88-2.6 625.43-0.65L625.43-0.65Q624.88 1.2 624.53 2.35L624.53 2.35Q623.13 6.25 620.73 8.15L620.73 8.15Q620.03 8.7 619.33 9.08 618.63 9.45 617.86 9.63 617.08 9.8 616.63 9.88 616.18 9.95 615.36 9.98 614.53 10 614.38 10.05L614.38 10.05ZM649.83-0.35L649.83-0.35Q643.23 1.25 639.28-3L639.28-3Q636.13-6.25 635.38-11.35L635.38-11.35Q634.83-15.35 636.33-18.95L636.33-18.95Q638.13-23.55 642.03-25.75L642.03-25.75Q642.83-26.2 644.03-26.4L644.03-26.4Q644.08-26.4 644.73-26.45L644.73-26.45Q644.98-26.5 645.13-26.55L645.13-26.55Q645.88-26.7 646.63-26.4L646.63-26.4Q646.83-26.4 647.58-26.38 648.33-26.35 648.58-26.33 648.83-26.3 649.46-26.23 650.08-26.15 650.48-26.05L650.48-26.05 651.43-25.7Q652.03-25.5 652.58-25.2 653.13-24.9 653.78-24.5L653.78-24.5Q657.03-22.3 658.28-18.32 659.53-14.35 658.93-11.9L658.93-11.9Q658.48-9.2 657.33-6.88 656.18-4.55 654.16-2.75 652.13-0.95 649.83-0.35L649.83-0.35ZM648.28-5.55L648.28-5.55Q650.43-5.85 651.96-7.78 653.48-9.7 653.96-11.85 654.43-14 653.61-16.57 652.78-19.15 650.98-20.3L650.98-20.3Q650.43-20.7 650.08-20.88 649.73-21.05 649.26-21.18 648.78-21.3 648.51-21.3 648.23-21.3 647.33-21.35 646.43-21.4 645.73-21.45L645.73-21.45Q645.58-21.45 645.38-21.5L645.38-21.5Q644.83-21.45 644.78-21.45L644.78-21.45 644.43-21.35Q642.23-20.15 641.06-17.53 639.88-14.9 640.38-12.1L640.38-12.1Q640.93-8.7 642.83-6.95L642.83-6.95Q644.88-5.05 648.28-5.55L648.28-5.55ZM683.08 0L683.08 0Q682.18-0.05 681.5-0.7 680.83-1.35 680.73-2.9L680.73-2.9Q678.43-0.9 675.98-0.3L675.98-0.3Q672.48 0.6 669.58-1.45L669.58-1.45Q666.78-3.45 665.18-8.05L665.18-8.05Q664.63-9.65 664.33-11.35L664.33-11.35Q664.03-13.1 664.05-15.08 664.08-17.05 664.13-18.28 664.18-19.5 664.38-21.63 664.58-23.75 664.63-24.3L664.63-24.3Q664.73-25.3 665.5-25.98 666.28-26.65 667.3-26.58 668.33-26.5 669-25.73 669.68-24.95 669.63-23.9L669.63-23.9Q669.58-23.15 669.35-21.05 669.13-18.95 669.1-17.93 669.08-16.9 669.05-15.23 669.03-13.55 669.25-12.23 669.48-10.9 669.88-9.65L669.88-9.65Q670.98-6.6 672.68-5.5L672.68-5.5Q673.38-5.05 674.98-5.05L674.98-5.05Q677.13-5.4 678.45-6.3 679.78-7.2 680.93-10.4L680.93-10.4Q681.03-17.05 680.78-23.9L680.78-23.9Q680.73-24.95 681.45-25.7 682.18-26.45 683.2-26.5 684.23-26.55 684.98-25.83 685.73-25.1 685.78-24.1L685.78-24.1Q686.18-12.3 685.73-2.35L685.73-2.35Q685.68-1.35 684.9-0.65 684.13 0.05 683.08 0L683.08 0ZM708.37 0L708.37 0Q707.32-0.05 706.62-0.83 705.92-1.6 705.97-2.6L705.97-2.6Q706.07-4.85 706.12-6.2L706.12-6.2Q706.17-7.95 706.22-9.98 706.27-12 706.3-13.4 706.32-14.8 706.3-16.78 706.27-18.75 706.27-19.83 706.27-20.9 706.25-23.63 706.22-26.35 706.2-27.08 706.17-27.8 706.12-30.28 706.07-32.75 706.07-33.25L706.07-33.25Q706.07-34.3 706.77-35.05 707.47-35.8 708.52-35.8 709.57-35.8 710.32-35.1 711.07-34.4 711.07-33.35L711.07-33.35Q711.22-26.65 711.22-24.95L711.22-24.95Q711.97-25.45 712.77-25.75L712.77-25.75Q716.17-27 718.92-26.43 721.67-25.85 723.87-23.8L723.87-23.8Q725.77-22 727-19.4 728.22-16.8 728.57-14.7L728.57-14.7Q729.42-8.35 726.37-4.05L726.37-4.05Q724.62-1.55 721.77-0.5L721.77-0.5Q718.97 0.6 715.32 0L715.32 0Q712.87-0.4 710.82-1.6L710.82-1.6Q710.52-0.85 709.85-0.4 709.17 0.05 708.37 0L708.37 0ZM716.12-4.9L716.12-4.9Q720.37-4.25 722.32-6.95L722.32-6.95Q724.22-9.65 723.62-14.05L723.62-14.05Q723.02-17.75 720.47-20.15L720.47-20.15Q717.97-22.45 714.57-21.15L714.57-21.15Q714.22-21 713.95-20.83 713.67-20.65 713.37-20.3L713.37-20.3 712.77-19.8Q712.57-19.55 712.07-18.98 711.57-18.4 711.27-18.1L711.27-18.1Q711.32-12.9 711.17-7.95L711.17-7.95 711.22-7.9Q712.92-5.45 716.12-4.9L716.12-4.9ZM746.47 0.25L746.47 0.25Q742.77 0 740.02-1.25 737.27-2.5 735.82-4.4 734.37-6.3 733.72-7.9 733.07-9.5 732.92-11.08 732.77-12.65 733.07-15.15L733.07-15.15Q733.42-17.25 734.55-19.3 735.67-21.35 737.55-22.98 739.42-24.6 742.07-25.48 744.72-26.35 747.72-26L747.72-26Q750.62-25.65 752.67-24.43 754.72-23.2 756.17-21.3L756.17-21.3Q757.42-19.7 757.7-18.9 757.97-18.1 758.2-17.4 758.42-16.7 758.57-16.2 758.72-15.7 758.85-15.18 758.97-14.65 759.02-13.95L759.02-13.95Q759.07-13 758.67-12.2 758.27-11.4 757.47-10.95L757.47-10.95Q756.82-10.7 756.07-10.7L756.07-10.7 747.52-10.55Q738.52-10.5 738.52-10.35L738.52-10.35 738.37-10.35Q739.02-7.8 741.1-6.35 743.17-4.9 746.77-4.65L746.77-4.65Q748.72-4.55 750.02-4.85L750.02-4.85Q751.47-5.25 752.12-5.58 752.77-5.9 753.72-6.45L753.72-6.45Q754.67-6.8 755.62-6.35 756.57-5.9 756.92-4.95 757.27-4 756.85-3.1 756.42-2.2 755.52-1.7L755.52-1.7Q754.72-1.25 753.87-0.93 753.02-0.6 751.37-0.15 749.72 0.3 746.47 0.25L746.47 0.25ZM738.47-15.25L738.47-15.25Q741.37-15.4 753.52-15.55L753.52-15.55Q753.07-17.05 752.07-18.4L752.07-18.4Q750.07-20.7 747.12-21.05L747.12-21.05Q744.02-21.45 741.67-19.73 739.32-18 738.47-15.25L738.47-15.25ZM777.67-0.8L777.67-0.8Q775.87-0.1 773.59 0 771.32 0.1 769.37-0.53 767.42-1.15 765.92-2.45L765.92-2.45Q763.32-4.6 762.57-7.8 761.82-11 762.52-13.55 763.22-16.1 764.64-18.53 766.07-20.95 767.74-22.63 769.42-24.3 771.62-25.45 773.82-26.6 776.22-26.58 778.62-26.55 781.27-25.25L781.27-25.25Q781.67-25.05 782.14-24.65 782.62-24.25 782.97-23.95L782.97-23.95 783.62-23.3Q783.92-23 783.92-22.95L783.92-22.95Q784.72-22.25 784.77-21.15L784.77-21.15Q785.42-18.15 785.62-14.85 785.82-11.55 785.74-8.65 785.67-5.75 785.82-2.5L785.82-2.5Q785.87-1.5 785.17-0.75 784.47 0 783.42 0.05 782.37 0.1 781.62-0.6 780.87-1.3 780.82-2.3L780.82-2.3 780.82-3.05Q779.32-1.5 777.67-0.8L777.67-0.8ZM775.42-5.3L775.42-5.3Q776.17-5.5 776.62-5.7 777.07-5.9 777.74-6.3 778.42-6.7 779.17-7.3 779.92-7.9 780.52-8.8L780.52-8.8Q780.62-8.9 780.77-9L780.77-9Q780.77-15.75 779.92-19.85L779.92-19.85Q779.77-20.05 779.59-20.23 779.42-20.4 779.34-20.5 779.27-20.6 779.14-20.68 779.02-20.75 778.87-20.85L778.87-20.85Q776.47-22.15 773.82-20.93 771.17-19.7 769.17-16.35L769.17-16.35Q767.17-12.95 767.19-10.43 767.22-7.9 769.12-6.25L769.12-6.25Q770.27-5.3 771.97-5.05 773.67-4.8 775.42-5.3L775.42-5.3ZM810.52 0L810.52 0Q809.62-0.05 808.94-0.7 808.27-1.35 808.17-2.9L808.17-2.9Q805.87-0.9 803.42-0.3L803.42-0.3Q799.92 0.6 797.02-1.45L797.02-1.45Q794.22-3.45 792.62-8.05L792.62-8.05Q792.07-9.65 791.77-11.35L791.77-11.35Q791.47-13.1 791.49-15.08 791.52-17.05 791.57-18.28 791.62-19.5 791.82-21.63 792.02-23.75 792.07-24.3L792.07-24.3Q792.17-25.3 792.94-25.98 793.72-26.65 794.74-26.58 795.77-26.5 796.44-25.73 797.12-24.95 797.07-23.9L797.07-23.9Q797.02-23.15 796.79-21.05 796.57-18.95 796.54-17.93 796.52-16.9 796.49-15.23 796.47-13.55 796.69-12.23 796.92-10.9 797.32-9.65L797.32-9.65Q798.42-6.6 800.12-5.5L800.12-5.5Q800.82-5.05 802.42-5.05L802.42-5.05Q804.57-5.4 805.89-6.3 807.22-7.2 808.37-10.4L808.37-10.4Q808.47-17.05 808.22-23.9L808.22-23.9Q808.17-24.95 808.89-25.7 809.62-26.45 810.64-26.5 811.67-26.55 812.42-25.83 813.17-25.1 813.22-24.1L813.22-24.1Q813.62-12.3 813.17-2.35L813.17-2.35Q813.12-1.35 812.34-0.65 811.57 0.05 810.52 0L810.52 0ZM828.21-0.15L828.21-0.15Q827.91-0.25 826.99-0.45 826.06-0.65 825.39-0.9 824.71-1.15 823.84-1.63 822.96-2.1 822.26-2.93 821.56-3.75 821.06-4.9L821.06-4.9Q820.51-6.25 820.36-10.2L820.36-10.2Q820.21-13.25 820.31-18.05L820.31-18.05Q820.31-18.95 820.36-21.05L820.36-21.05 819.96-21Q818.91-20.9 818.11-21.55 817.31-22.2 817.19-23.23 817.06-24.25 817.71-25.05 818.36-25.85 819.36-26L819.36-26 820.51-26.1Q820.56-28.75 820.66-31.45L820.66-31.45Q820.71-32.5 821.46-33.2 822.21-33.9 823.26-33.85 824.31-33.8 825.01-33.05 825.71-32.3 825.66-31.25L825.66-31.25 825.51-26.5 827.16-26.6Q828.21-26.65 828.99-26 829.76-25.35 829.84-24.3 829.91-23.25 829.26-22.48 828.61-21.7 827.56-21.6L827.56-21.6 825.36-21.5Q825.31-19.1 825.31-18L825.31-18Q825.21-13.3 825.36-10.35L825.36-10.35Q825.46-7.35 825.66-6.9 825.86-6.45 825.96-6.28 826.06-6.1 826.34-5.93 826.61-5.75 826.91-5.7 827.21-5.65 828.04-5.43 828.86-5.2 829.81-4.85L829.81-4.85Q830.76-4.55 831.24-3.63 831.71-2.7 831.39-1.73 831.06-0.75 830.14-0.28 829.21 0.2 828.21-0.15L828.21-0.15ZM835.31-2.4L835.31-2.4Q835.21-6.15 835.34-13.9 835.46-21.65 835.46-24.05L835.46-24.05Q835.46-25.1 836.19-25.83 836.91-26.55 837.96-26.55 839.01-26.55 839.74-25.83 840.46-25.1 840.46-24.05L840.46-24.05Q840.46-21.65 840.34-13.95 840.21-6.25 840.31-2.5L840.31-2.5Q840.31-1.45 839.61-0.7 838.91 0.05 837.86 0.05 836.81 0.05 836.06-0.65 835.31-1.35 835.31-2.4L835.31-2.4ZM839.96-35.2L839.96-35.2Q840.81-34.35 840.81-33.1 840.81-31.85 839.96-31 839.11-30.15 837.86-30.15 836.61-30.15 835.76-31 834.91-31.85 834.91-33.1 834.91-34.35 835.76-35.2 836.61-36.05 837.89-36.08 839.16-36.1 839.96-35.2L839.96-35.2ZM850.36 0L850.36 0Q849.46 0 848.81-0.55 848.16-1.1 848.06-2.15L848.06-2.15Q847.26-8.7 847.16-17.15L847.16-17.15 847.11-20.9 846.71-20.9Q845.46-20.9 844.78-21.63 844.11-22.35 844.11-23.45L844.11-23.45Q844.11-24.45 844.71-25.23 845.31-26 846.41-26L846.41-26 847.31-26Q847.31-28.95 848.18-31.68 849.06-34.4 850.76-35.35L850.76-35.35Q852.46-36.25 853.96-36.25L853.96-36.25Q856.06-36.25 857.31-35.5 858.56-34.75 858.56-33.35L858.56-33.35Q858.56-32.2 858.01-31.5 857.46-30.8 856.46-30.8L856.46-30.8Q856.16-30.8 855.88-30.85 855.61-30.9 855.36-30.95L855.36-30.95Q854.66-31.15 853.91-31.15L853.91-31.15Q853.06-31.15 852.76-29.78 852.46-28.4 852.31-26L852.31-26 854.46-26Q855.61-26 856.28-25.25 856.96-24.5 856.96-23.5L856.96-23.5Q856.96-22.5 856.28-21.75 855.61-21 854.46-21L854.46-21 852.11-21 852.16-17.2Q852.61-6.1 852.96-3.05L852.96-3.05Q853.11-1.4 852.31-0.7 851.51 0 850.36 0L850.36 0ZM879.96 0L879.96 0Q879.06-0.05 878.38-0.7 877.71-1.35 877.61-2.9L877.61-2.9Q875.31-0.9 872.86-0.3L872.86-0.3Q869.36 0.6 866.46-1.45L866.46-1.45Q863.66-3.45 862.06-8.05L862.06-8.05Q861.51-9.65 861.21-11.35L861.21-11.35Q860.91-13.1 860.93-15.08 860.96-17.05 861.01-18.28 861.06-19.5 861.26-21.63 861.46-23.75 861.51-24.3L861.51-24.3Q861.61-25.3 862.38-25.98 863.16-26.65 864.18-26.58 865.21-26.5 865.88-25.73 866.56-24.95 866.51-23.9L866.51-23.9Q866.46-23.15 866.23-21.05 866.01-18.95 865.98-17.93 865.96-16.9 865.93-15.23 865.91-13.55 866.13-12.23 866.36-10.9 866.76-9.65L866.76-9.65Q867.86-6.6 869.56-5.5L869.56-5.5Q870.26-5.05 871.86-5.05L871.86-5.05Q874.01-5.4 875.33-6.3 876.66-7.2 877.81-10.4L877.81-10.4Q877.91-17.05 877.66-23.9L877.66-23.9Q877.61-24.95 878.33-25.7 879.06-26.45 880.08-26.5 881.11-26.55 881.86-25.83 882.61-25.1 882.66-24.1L882.66-24.1Q883.06-12.3 882.61-2.35L882.61-2.35Q882.56-1.35 881.78-0.65 881.01 0.05 879.96 0L879.96 0ZM894.1-2.4L894.1-2.4Q894.05-1.35 893.3-0.65 892.55 0.05 891.5 0 890.45-0.05 889.75-0.8 889.05-1.55 889.1-2.6L889.1-2.6Q889.3-9.25 889.3-12.7 889.3-16.15 889.2-23 889.1-29.85 889.1-33.3L889.1-33.3Q889.1-34.35 889.83-35.08 890.55-35.8 891.6-35.8 892.65-35.8 893.38-35.08 894.1-34.35 894.1-33.3L894.1-33.3Q894.1-29.85 894.2-23.5 894.3-17.15 894.28-11.98 894.25-6.8 894.1-2.4L894.1-2.4Z" opacity="1" transform="matrix(1,0,0,1,0,0)" fill="#000000" class="undefined-text-1" data-fill-palette-color="secondary" id="text-1"></path></svg></g></svg></g></svg></g></svg></g><g transform="matrix(1,0,0,1,0,12.875020322722602)"><svg viewBox="0 0 35.11350785669536 57.58342422654578" height="57.58342422654578" width="35.11350785669536"><g><svg xmlns="http://www.w3.org/2000/svg" xmlns:xlink="http://www.w3.org/1999/xlink" version="1.1" x="0" y="0" viewBox="165.3007354736328 58.49941635131836 532.644287109375 873.4952392578125" enable-background="new 0 0 1000 1000" xml:space="preserve" height="57.58342422654578" width="35.11350785669536" class="icon-icon-0" data-fill-palette-color="accent" id="icon-0"><g fill="#861c13" data-fill-palette-color="accent"><path d="M430.277 546.846c60.604-42.422 1.01-125.248 29.292-180.801 17.171-32.322 53.534-47.473 85.856-59.594 48.482-18.181 101.007-24.242 152.52-23.231-63.634 29.292-114.138 72.725-138.379 140.399-14.141 39.393-25.252 82.825-61.614 108.077-13.131 8.08-61.614 27.271-74.745 17.171" fill="#000000" data-fill-palette-color="accent"></path></g><g fill="#861c13" data-fill-palette-color="accent"><path d="M476.376 313.117c-3.03-17.171-20.201-28.282-33.332-37.372-23.231-18.182-46.463-38.383-63.634-62.625-25.251-34.342-48.483-88.886-28.282-130.298-26.262 25.251-44.443 71.714-57.574 106.057-15.151 39.393-22.221 82.826-22.221 124.238 0 68.684 27.272 158.58 83.835 199.993 15.151 11.11 36.362 25.251 54.543 25.251 17.171 0 17.171-11.11 20.201-27.271 6.061-33.332-3.03-62.624-5.05-96.966C422.843 379.781 431.085 335.944 476.376 313.117" fill="#000000" data-fill-palette-color="accent"></path></g><g fill="#861c13" data-fill-palette-color="accent"><path d="M659.132 252.74c1.091-47.996-43.633-105.809-78.539-137.443-27.271-25.089-63.267-45.814-100.354-52.359-38.179-6.544-85.084-10.908-106.9 25.089-28.361 46.905 6.545 100.354 42.542 130.897 0-11.999-7.636-23.998-9.817-35.997-3.272-19.634 1.091-41.451 14.181-56.722 23.998-26.18 55.632-20.726 82.902-6.545 31.634 15.271 57.812 46.905 81.811 73.084 18.544 21.816 43.633 56.722 74.176 57.813" fill="#000000" data-fill-palette-color="accent"></path></g><g fill="#861c13" data-fill-palette-color="accent"><path d="M617.681 263.648c-52.358 0-103.627 15.271-151.623-11.999-28.361-15.271-42.542-37.087-46.905-69.812-4.363-33.815 21.817-54.541 45.814-21.816 9.817 13.09 15.271 28.361 26.18 40.36 16.362 19.635 37.087 30.543 58.904 42.542 16.362 9.818 33.814 20.726 53.449 19.635" fill="#000000" data-fill-palette-color="accent"></path></g><g fill="#861c13" data-fill-palette-color="accent"><path d="M374.342 679.006c2.161-11.541 4.408-23.192 6.658-35.006 6-28 26-68 20-98l-6-2c-12.501 2.632-24.136 20.201-34.265 43.661C355.221 584.994 348.62 584 343 584c-2.877 10.07 1.489 20.141 7.889 29.467C335.576 658.332 325.233 711.248 323 728c-0.538 3.494-1.183 10.133-1.782 18.944L321 746c-4 4-8 14-16 16 5.522 2.761 10.1 5.506 15.031 7.609C317.493 835.189 320.208 948.396 357 930c-8-54-4-110 4-164 2.151-21.515 5.465-43.031 9.309-64.856 6.282-1.286 12.993-3.719 18.691-5.144C384.85 689.084 379.743 684.081 374.342 679.006z" fill="#000000" data-fill-palette-color="accent"></path></g><g fill="#861c13" data-fill-palette-color="accent"><path d="M423 619.24c18.427-40.949 61.425-63.473 104.422-59.377-2.048 4.095-6.143 8.189-8.189 12.285 18.427 0 40.949-8.19 59.377-4.096-2.048 4.096-2.048 8.19-4.095 12.285 20.475 4.095 42.997 2.047 63.472 0-12.285 30.712-47.092 42.997-75.757 49.14 0 4.095 2.047 8.19 4.095 10.237-16.38 4.096-36.854 2.048-53.234 0 4.095 4.096 6.143 10.237 8.189 12.285-32.76-6.143-65.52-2.048-94.185-18.428 16.38-18.427 55.282-22.522 73.71-38.902-30.712-8.189-51.188 14.333-77.805 26.617" fill="#000000" data-fill-palette-color="accent"></path></g><g fill="#861c13" data-fill-palette-color="accent"><path d="M242.263 303.632c-61.113 7.489-79.384 65.979-76.712 122.933 1.347-22.658 21.372-57.213 48.009-42.623 20.325 10.542 30.985 53.374 44.378 71.943 27.006 40.131 71.633 74.458 120.27 81.42-17.662-15.25-42.583-26.958-60.464-45.198-16.494-19.846-27.225-43.122-36.35-65.012-14.49-33.528-15.995-95.08-38.912-120.471" fill="#000000" data-fill-palette-color="accent"></path></g></svg></g></svg></g></svg></g></svg></g></svg></g></svg></g><defs></defs></svg><rect width="395.52" height="247.2" fill="none" stroke="none" visibility="hidden"></rect></g></svg></g></svg>