<?xml version="1.0" standalone="no"?>
<!DOCTYPE svg PUBLIC "-//W3C//DTD SVG 20010904//EN"
 "http://www.w3.org/TR/2001/REC-SVG-20010904/DTD/svg10.dtd">
<svg version="1.0" xmlns="http://www.w3.org/2000/svg"
 width="450.000000pt" height="450.000000pt" viewBox="0 0 450.000000 450.000000"
 preserveAspectRatio="xMidYMid meet">
<metadata>
Created by potrace 1.10, written by Peter Selinger 2001-2011
</metadata>
<g transform="translate(0.000000,450.000000) scale(0.100000,-0.100000)"
fill="#b02635" stroke="none">
<path d="M2371 3754 c-17 -32 -31 -61 -31 -66 0 -16 19 -7 25 12 10 30 51 27
59 -5 7 -26 26 -35 26 -12 0 6 -11 38 -24 70 l-24 59 -31 -58z m34 -13 c-9
-16 -25 -3 -18 15 4 10 9 12 15 6 6 -6 7 -15 3 -21z"/>
<path d="M1807 3793 c-13 -12 -7 -25 9 -19 8 3 12 2 9 -4 -3 -6 -1 -10 4 -10
6 0 11 9 11 20 0 19 -20 27 -33 13z"/>
<path d="M2088 3783 c-3 -4 -11 -25 -17 -45 -7 -21 -16 -38 -19 -38 -4 0 -18
16 -31 35 -13 19 -26 33 -30 31 -10 -7 0 -126 11 -126 6 0 7 17 3 43 l-6 42
29 -34 c31 -36 36 -35 47 17 8 39 20 34 29 -13 6 -33 26 -50 26 -22 -1 23 -38
119 -42 110z"/>
<path d="M2546 3773 c-17 -63 -17 -85 0 -104 30 -33 76 -23 92 21 21 57 23 80
7 80 -9 0 -15 -9 -15 -24 0 -41 -18 -76 -39 -76 -32 0 -44 24 -32 67 13 47 13
53 2 53 -5 0 -12 -8 -15 -17z"/>
<path d="M1797 3753 c-4 -3 -7 -13 -7 -22 0 -13 2 -14 9 -2 5 8 16 11 26 7 15
-5 16 -4 5 9 -14 16 -23 19 -33 8z"/>
<path d="M2755 3728 c11 -6 21 -12 23 -13 1 -1 -5 -21 -13 -45 -18 -50 -18
-60 -5 -60 5 0 16 21 24 48 11 38 17 47 35 45 35 -4 23 13 -18 25 -49 15 -73
15 -46 0z"/>
<path d="M1810 3696 c0 -13 -3 -44 -6 -70 -5 -31 -3 -46 5 -46 6 0 11 14 11
30 0 40 24 49 54 21 40 -38 37 -10 -5 40 -46 55 -59 60 -59 25z m30 -21 c10
-12 10 -15 -4 -15 -9 0 -16 7 -16 15 0 8 2 15 4 15 2 0 9 -7 16 -15z"/>
<path d="M2915 3629 c-28 -58 -30 -69 -15 -69 6 0 15 11 20 25 10 25 10 25 41
10 20 -11 29 -21 25 -31 -3 -8 -9 -21 -12 -29 -3 -8 -2 -15 3 -15 14 0 64 108
53 115 -6 4 -14 -5 -20 -20 -9 -25 -11 -25 -40 -10 -33 17 -34 19 -20 45 7 12
7 21 0 25 -5 3 -21 -18 -35 -46z"/>
<path d="M1650 3649 c0 -6 4 -19 10 -29 8 -15 4 -20 -21 -31 -29 -11 -33 -10
-48 10 -9 12 -20 19 -23 16 -9 -9 45 -114 60 -114 16 -1 15 5 -4 34 -15 23
-14 24 17 41 19 9 35 12 36 7 7 -21 32 -48 38 -41 4 4 -7 32 -25 62 -31 56
-40 65 -40 45z"/>
<path d="M3109 3518 l-33 -51 30 -23 c16 -13 32 -24 37 -24 15 0 6 16 -18 31
-22 13 -24 17 -12 33 13 18 15 18 40 1 17 -11 27 -13 27 -6 0 6 -11 16 -25 23
-20 9 -22 14 -14 30 10 18 11 18 36 -2 14 -11 28 -18 31 -16 8 8 -9 26 -38 41
-28 15 -28 14 -61 -37z"/>
<path d="M1428 3522 l-27 -18 35 -49 c33 -48 54 -66 54 -48 0 4 -7 17 -15 27
-13 17 -13 22 1 37 19 21 15 63 -6 66 -8 2 -27 -5 -42 -15z m45 -16 c9 -22
-18 -40 -33 -22 -6 9 -9 20 -5 26 9 15 32 12 38 -4z"/>
<path d="M3266 3404 c-21 -25 -35 -48 -32 -51 4 -4 20 9 36 28 l29 34 1 -65 0
-65 47 47 c26 26 44 51 39 55 -4 4 -21 -8 -37 -27 l-28 -35 -1 63 c0 34 -3 62
-7 62 -5 -1 -25 -21 -47 -46z"/>
<path d="M1162 3329 c-17 -27 -11 -33 14 -15 13 10 16 18 9 25 -7 7 -15 4 -23
-10z"/>
<path d="M1210 3325 c0 -9 5 -25 11 -37 10 -19 9 -20 -30 -13 -26 4 -41 3 -41
-4 0 -5 17 -13 38 -17 20 -3 47 -15 58 -26 16 -14 24 -16 29 -8 4 7 -2 18 -14
26 -11 8 -23 30 -27 49 -7 37 -24 58 -24 30z"/>
<path d="M3460 3291 c0 -6 5 -13 11 -17 7 -4 -5 -21 -32 -44 -24 -21 -41 -41
-37 -45 4 -4 26 9 49 29 39 33 43 34 55 18 7 -9 16 -14 19 -10 4 4 -5 23 -21
42 -29 35 -44 44 -44 27z"/>
<path d="M1070 3166 c0 -3 9 -20 20 -38 11 -18 20 -37 20 -42 0 -5 -23 -6 -51
-3 -28 4 -49 3 -47 -1 6 -16 89 -85 94 -79 4 3 -7 18 -22 32 l-29 26 43 -5
c48 -7 50 -4 22 42 -21 34 -16 41 16 17 22 -17 44 -19 44 -5 0 8 -32 26 -102
58 -5 2 -8 1 -8 -2z"/>
<path d="M3535 3109 c-39 -29 -55 -49 -39 -49 12 0 103 64 104 73 0 15 -26 5
-65 -24z"/>
<path d="M3596 2999 c-15 -11 -26 -31 -26 -44 0 -27 35 -74 47 -62 4 5 0 13
-10 18 -25 15 -21 56 8 75 33 21 64 10 72 -27 5 -29 23 -31 23 -3 0 21 -46 64
-68 64 -11 0 -31 -9 -46 -21z"/>
<path d="M705 2856 c-69 -30 -86 -96 -33 -125 24 -14 36 -13 115 3 126 26 127
26 131 -6 2 -18 -10 -45 -36 -85 -22 -32 -54 -86 -72 -120 -30 -60 -34 -63
-69 -63 -39 0 -81 -23 -81 -44 0 -8 14 -27 31 -43 l30 -30 -20 -61 c-25 -72
-27 -132 -7 -171 13 -25 13 -30 -5 -57 -10 -16 -19 -35 -19 -41 0 -24 16 -13
32 21 16 32 18 34 62 29 31 -4 46 -2 46 6 0 6 -14 11 -30 11 -17 0 -33 6 -36
14 -3 8 12 45 33 83 22 37 46 83 54 101 13 30 17 32 66 32 28 0 86 7 129 15
l78 15 45 -27 c62 -36 126 -97 146 -139 11 -23 16 -53 13 -85 -4 -57 12 -69
25 -19 23 91 -25 208 -108 258 -46 28 -56 42 -29 42 30 0 151 71 193 113 58
56 75 92 75 154 0 46 -4 57 -33 87 -73 75 -216 102 -416 77 l-90 -11 -24 26
c-47 51 -132 68 -196 40z m127 -15 c13 -5 34 -20 48 -32 l24 -24 -39 -6 c-109
-19 -181 -21 -193 -6 -40 48 80 99 160 68z m453 -66 c196 -50 156 -244 -75
-360 l-72 -36 -52 20 c-46 18 -76 27 -158 45 l-27 6 15 42 c8 22 17 64 20 93
5 38 14 61 35 83 37 39 37 52 0 52 -21 0 -32 6 -36 21 -4 11 -5 22 -3 24 5 6
168 22 233 24 34 0 88 -6 120 -14z m-381 -250 c-17 -66 -30 -82 -59 -71 -12 4
-7 19 27 75 24 38 44 68 46 66 2 -1 -5 -33 -14 -70z m-144 -95 c0 -5 -5 -20
-12 -34 -9 -20 -14 -23 -25 -15 -18 16 -16 36 5 48 22 13 32 14 32 1z m105 -9
c3 -5 -2 -26 -12 -45 -13 -29 -22 -36 -45 -36 -33 0 -34 7 -11 55 16 34 53 49
68 26z m185 -62 c0 -4 -26 -10 -57 -14 -32 -3 -75 -8 -95 -10 -42 -6 -44 -2
-23 48 l15 35 80 -26 c44 -14 80 -29 80 -33z m-230 -45 c2 -3 -18 -48 -45
-102 -43 -86 -49 -94 -55 -72 -9 31 -4 58 22 133 20 55 23 58 47 52 14 -4 28
-9 31 -11z"/>
<path d="M2320 2781 c-54 -17 -91 -43 -114 -79 -69 -105 -24 -222 86 -222 44
0 85 17 93 38 9 24 -2 25 -24 3 -31 -31 -104 -29 -136 3 -33 33 -40 68 -25
122 26 92 134 142 242 110 30 -8 62 -24 71 -34 16 -17 15 -20 -14 -48 -93 -88
-77 -167 51 -250 38 -25 70 -46 70 -48 0 -2 -9 -29 -20 -61 -34 -99 -78 -143
-174 -177 -43 -15 -46 -17 -21 -17 80 -1 181 88 212 185 9 30 20 54 25 54 14
0 38 -58 38 -92 0 -53 -32 -93 -102 -127 -145 -71 -368 -58 -368 22 0 36 42
79 109 111 53 25 80 31 139 33 84 2 97 8 56 24 -58 22 -200 -13 -272 -67 -44
-34 -65 -69 -64 -105 1 -38 15 -55 66 -82 80 -41 270 -21 371 39 78 47 125
105 125 154 0 33 -31 83 -69 111 -30 22 -31 26 -31 94 0 81 -17 149 -49 193
l-21 30 53 22 c71 32 173 34 193 5 11 -18 10 -26 -8 -62 -31 -61 -14 -66 38
-11 50 53 56 73 19 66 -21 -4 -25 -1 -25 19 0 17 -10 28 -35 40 -31 15 -43 15
-93 5 -31 -7 -79 -23 -105 -36 l-49 -24 -48 30 c-51 32 -141 45 -190 29z m267
-158 c24 -55 45 -203 29 -203 -16 0 -85 51 -110 81 -23 27 -27 40 -23 71 5 39
49 108 68 108 6 0 22 -26 36 -57z"/>
<path d="M3806 2488 c-18 -29 -42 -69 -52 -88 -15 -26 -26 -34 -48 -35 -16 0
-31 -6 -33 -12 -3 -8 5 -13 21 -13 14 0 26 -1 26 -2 0 -2 -7 -25 -15 -52 -8
-28 -13 -58 -9 -68 4 -15 -6 -23 -51 -43 -61 -28 -95 -31 -113 -13 -20 20 -13
45 19 70 78 58 100 86 97 120 -3 29 -7 33 -34 36 -22 2 -40 -5 -64 -25 -35
-29 -80 -113 -80 -151 0 -46 -140 -83 -148 -39 -2 10 10 47 27 84 35 75 30
100 -16 82 -51 -19 -68 6 -33 51 11 14 20 37 20 53 0 22 -4 27 -25 27 -33 0
-59 -41 -52 -79 7 -32 -31 -96 -81 -138 -14 -12 -23 -25 -19 -29 9 -9 72 50
97 90 18 28 18 28 29 7 7 -12 18 -21 26 -21 19 0 19 -18 0 -50 -18 -31 -19
-102 -3 -118 20 -20 81 -14 133 13 l49 24 20 -21 c16 -18 27 -20 77 -15 34 3
73 14 92 26 34 21 34 21 52 1 23 -25 70 -26 112 -2 47 25 109 85 94 90 -7 2
-18 -2 -24 -10 -19 -24 -80 -65 -105 -71 -14 -3 -31 2 -45 14 l-22 19 25 19
c14 11 22 23 18 27 -4 4 -15 1 -25 -7 -19 -16 -19 -19 12 59 l17 42 79 0 c66
0 79 3 79 16 0 14 -11 16 -70 12 -38 -2 -70 -2 -70 -1 0 1 25 39 55 84 30 45
55 83 55 85 0 2 -13 4 -30 4 -25 0 -35 -8 -64 -52z m-179 -134 c6 -17 -36 -73
-67 -89 -18 -9 -34 -15 -36 -12 -2 2 14 29 37 61 37 52 58 65 66 40z"/>
<path d="M1694 2441 c-76 -34 -111 -110 -80 -172 18 -35 14 -49 -14 -49 -10 0
-22 -4 -25 -10 -3 -5 -15 -10 -27 -10 -15 0 -18 4 -12 18 14 32 16 104 3 128
-6 13 -20 26 -31 30 -10 3 -18 12 -18 20 0 19 -19 18 -68 -6 -42 -20 -44 -24
-57 -100 -17 -102 -17 -146 -1 -159 27 -23 75 -15 117 18 47 39 82 40 113 4
23 -26 26 -27 58 -15 19 6 51 12 72 12 20 0 46 5 58 11 16 9 24 7 41 -11 18
-20 27 -22 78 -17 62 5 142 42 180 83 33 35 15 41 -23 9 -42 -35 -125 -75
-158 -75 -56 0 -66 43 -18 80 78 61 99 88 96 122 -2 28 -8 34 -31 36 -54 6
-119 -66 -143 -157 -12 -49 -26 -58 -91 -60 -24 -1 -33 3 -33 14 0 9 -9 34
-21 57 -26 51 -20 94 19 130 36 34 65 48 97 48 26 0 27 -2 21 -37 l-7 -38 20
25 c23 28 27 60 9 78 -18 18 -77 14 -124 -7z m-184 -90 c22 -43 4 -151 -25
-151 -19 0 -63 38 -70 61 -9 27 40 109 65 109 11 0 24 -9 30 -19z m450 9 c0
-23 -31 -69 -59 -89 -42 -30 -53 -26 -30 13 37 63 89 107 89 76z m-501 -175
l25 -8 -24 -19 c-13 -10 -33 -18 -44 -16 -17 2 -22 11 -24 48 l-3 45 23 -21
c13 -12 34 -25 47 -29z m191 15 c0 -11 -4 -20 -9 -20 -14 0 -23 18 -16 30 10
17 25 11 25 -10z m-10 -42 c0 -11 -7 -10 -31 2 -28 16 -23 32 6 18 14 -6 25
-15 25 -20z"/>
<path d="M2828 2353 c-65 -67 -90 -170 -50 -206 25 -23 97 -21 151 3 l44 20
14 -20 c31 -44 161 -10 228 60 40 42 24 50 -22 10 -41 -37 -107 -69 -140 -70
-12 0 -29 7 -38 16 -15 16 -14 19 16 50 33 34 31 48 -3 17 -17 -15 -18 -15
-18 0 0 26 83 107 109 107 20 0 22 -4 16 -32 -6 -32 -5 -32 10 -13 22 27 30
64 17 77 -18 18 -70 11 -103 -13 -41 -29 -89 -105 -89 -141 0 -24 -7 -32 -37
-44 -20 -9 -51 -18 -68 -21 -66 -11 -92 73 -29 89 65 17 123 98 94 133 -22 27
-63 18 -102 -22z m82 -5 c-1 -32 -63 -98 -92 -98 -12 0 16 51 48 89 31 37 44
39 44 9z"/>
<path d="M1803 1865 c-58 -25 -81 -115 -41 -162 21 -26 74 -43 108 -37 43 9
32 30 -13 26 -29 -3 -42 2 -63 23 -22 22 -25 32 -20 63 8 50 40 75 88 69 43
-6 55 16 16 27 -31 8 -38 7 -75 -9z"/>
<path d="M2717 1874 c-14 -15 -6 -34 14 -34 14 0 19 5 17 17 -3 18 -20 27 -31
17z"/>
<path d="M2623 1840 c-3 -11 -9 -20 -14 -20 -5 0 -9 -7 -9 -15 0 -8 5 -15 10
-15 6 0 10 -25 10 -55 0 -45 4 -56 21 -65 22 -12 49 -7 49 10 0 5 -9 10 -20
10 -17 0 -20 7 -20 50 0 43 3 50 20 50 11 0 20 7 20 15 0 8 -9 15 -20 15 -13
0 -20 7 -20 20 0 11 -5 20 -11 20 -6 0 -13 -9 -16 -20z"/>
<path d="M1942 1800 c-33 -31 -30 -92 5 -120 49 -38 113 -1 113 66 0 40 -32
74 -70 74 -14 0 -36 -9 -48 -20z m72 -13 c22 -16 18 -75 -6 -91 -26 -16 -52 4
-56 45 -3 30 15 59 38 59 3 0 14 -6 24 -13z"/>
<path d="M2102 1808 c-22 -22 -14 -56 18 -73 41 -21 40 -48 -2 -43 -39 4 -49
-17 -12 -26 33 -9 74 16 74 45 0 12 -13 28 -35 40 -19 12 -35 25 -35 30 0 9 7
11 42 13 10 1 19 6 20 11 4 15 -55 18 -70 3z"/>
<path d="M2210 1745 c0 -60 3 -75 15 -75 12 0 15 13 15 55 0 43 4 56 19 65 32
17 53 -13 49 -71 -2 -27 0 -49 5 -49 4 0 11 0 16 0 6 0 7 16 4 34 -9 54 3 86
31 86 28 0 36 -16 36 -76 0 -30 4 -44 13 -44 16 0 11 117 -5 138 -13 15 -50
16 -64 2 -8 -8 -19 -7 -38 1 -21 10 -32 10 -46 1 -12 -7 -21 -8 -25 -2 -16 26
-25 3 -25 -65z"/>
<path d="M2484 1805 c-26 -17 -37 -66 -24 -100 12 -31 53 -48 92 -40 41 9 29
30 -14 27 -22 -2 -39 2 -47 12 -20 24 -5 34 44 28 44 -5 45 -4 45 25 0 53 -52
79 -96 48z m66 -24 c12 -23 7 -27 -37 -29 -36 -2 -42 8 -17 32 21 21 41 20 54
-3z"/>
<path d="M2720 1818 c-1 -1 -2 -36 -3 -76 -2 -58 1 -72 13 -72 12 0 15 14 14
72 0 46 -4 73 -12 76 -7 2 -12 2 -12 0z"/>
<path d="M2807 1800 c-47 -37 -31 -123 23 -130 34 -5 60 1 60 13 0 9 -9 12
-29 9 -40 -6 -70 36 -53 73 7 14 20 25 29 26 45 3 53 5 55 14 6 20 -58 16 -85
-5z"/>
<path d="M1022 1720 c5 -16 638 -19 638 -2 0 9 -71 12 -321 12 -214 0 -320 -3
-317 -10z"/>
<path d="M2960 1718 c0 -17 623 -15 628 1 3 8 -94 11 -312 11 -246 0 -316 -3
-316 -12z"/>
<path d="M1058 1409 c-26 -17 -45 -35 -42 -40 3 -5 17 0 31 11 37 29 48 25 24
-9 -32 -44 -27 -52 20 -36 57 20 59 19 19 -14 -19 -16 -32 -33 -28 -36 4 -4
27 10 52 31 50 44 46 62 -9 44 -20 -7 -38 -10 -41 -8 -2 3 7 19 21 38 22 30
25 50 7 50 -4 0 -28 -14 -54 -31z"/>
<path d="M3490 1400 c0 -5 21 -23 46 -41 l47 -32 18 24 c21 27 24 39 9 39 -5
0 -10 -5 -10 -10 0 -23 -31 -20 -63 4 -36 28 -47 32 -47 16z"/>
<path d="M3417 1314 c-3 -3 10 -19 29 -36 37 -33 45 -68 16 -68 -10 0 -31 14
-47 30 -31 32 -45 38 -45 18 0 -18 65 -68 87 -68 51 0 56 53 10 98 -34 33 -40
36 -50 26z"/>
<path d="M1205 1233 c-58 -30 -60 -31 -53 -39 4 -3 15 -1 26 5 26 14 42 -4 35
-40 -9 -46 10 -33 36 24 39 83 33 90 -44 50z m39 -18 c-7 -17 -20 -20 -28 -6
-4 5 0 12 6 14 23 9 28 7 22 -8z"/>
<path d="M3272 1168 l-21 -23 39 -45 c21 -25 42 -42 46 -38 4 5 0 16 -9 26
-15 17 -15 19 0 35 9 9 13 20 9 24 -4 4 -14 0 -21 -11 -8 -10 -18 -15 -24 -11
-16 9 -13 32 4 39 16 6 21 26 7 26 -5 0 -18 -10 -30 -22z"/>
<path d="M1331 1110 c-24 -28 -40 -54 -36 -58 4 -4 15 3 25 16 26 31 34 28 27
-13 -3 -19 -1 -37 4 -40 5 -4 10 -1 10 4 1 6 3 16 4 21 1 6 3 19 4 29 1 13 10
21 28 23 14 2 29 9 31 17 5 14 -16 12 -65 -6 -17 -6 -17 -6 1 15 10 11 16 26
14 32 -2 6 -23 -12 -47 -40z"/>
<path d="M3166 1081 c-8 -13 54 -101 71 -101 18 0 18 0 -26 59 -22 29 -42 48
-45 42z"/>
<path d="M1472 1005 c-18 -25 -32 -49 -32 -53 0 -4 14 -16 30 -25 33 -20 39
-13 13 15 -22 24 -3 49 22 28 8 -7 19 -10 23 -6 4 4 -1 14 -12 21 -12 9 -16
20 -12 31 6 15 8 15 26 -1 11 -10 23 -15 27 -11 7 7 -34 45 -48 46 -3 0 -20
-20 -37 -45z"/>
<path d="M3048 1007 c-43 -25 -50 -40 -15 -32 20 5 26 0 42 -34 10 -23 24 -41
32 -41 18 0 17 4 -13 51 -24 38 -24 42 -8 53 31 23 0 25 -38 3z"/>
<path d="M2920 936 c0 -2 9 -23 19 -47 21 -47 20 -59 -8 -59 -11 0 -25 15 -36
40 -19 42 -41 56 -29 18 17 -57 34 -78 64 -78 43 0 54 27 33 84 -10 25 -23 46
-30 46 -7 0 -13 -2 -13 -4z"/>
<path d="M1725 892 c4 -25 2 -49 -5 -62 -9 -16 -9 -25 -1 -33 8 -8 14 -2 21
19 6 16 24 38 40 49 17 11 30 23 30 28 0 13 -27 7 -41 -10 -13 -15 -14 -13
-19 12 -3 16 -11 30 -19 33 -10 3 -12 -4 -6 -36z"/>
<path d="M2727 862 c-10 -15 -11 -127 -1 -124 5 1 9 10 9 19 0 9 8 21 17 27
14 8 21 6 32 -9 30 -41 27 -5 -3 39 -34 49 -47 61 -54 48z m33 -53 c0 -5 -7
-9 -15 -9 -15 0 -20 12 -9 23 8 8 24 -1 24 -14z"/>
<path d="M1877 842 c-25 -27 -22 -78 5 -96 30 -21 44 -20 68 4 22 22 27 79 8
98 -18 18 -63 14 -81 -6z m71 -38 c3 -34 -18 -60 -43 -50 -39 15 -24 90 18 84
16 -2 23 -11 25 -34z"/>
<path d="M2066 799 c-11 -58 -7 -88 14 -99 43 -23 80 19 80 91 0 48 -17 33
-26 -23 -7 -43 -13 -53 -29 -53 -18 0 -20 6 -18 58 2 61 -10 77 -21 26z"/>
<path d="M2544 768 c4 -35 9 -64 11 -66 7 -7 75 11 75 20 0 5 -13 7 -29 3 -23
-5 -29 -2 -34 14 -4 17 0 21 19 21 13 0 24 5 24 10 0 6 -11 10 -25 10 -16 0
-25 6 -25 15 0 8 9 15 19 15 11 0 23 5 26 10 4 6 -9 10 -31 10 l-37 0 7 -62z"/>
<path d="M2370 750 c0 -67 12 -81 56 -62 23 11 32 41 17 56 -4 4 -7 19 -8 34
0 23 -5 27 -32 30 l-33 3 0 -61z m50 25 c0 -8 -7 -15 -15 -15 -8 0 -15 7 -15
15 0 8 7 15 15 15 8 0 15 -7 15 -15z m8 -52 c-5 -26 -38 -29 -38 -4 0 15 6 21
21 21 14 0 19 -5 17 -17z"/>
</g>
</svg>
